<svg width="170" height="104" viewBox="0 0 170 104" fill="none" xmlns="http://www.w3.org/2000/svg">
<path d="M16 8C16 12.4183 12.4183 16 8 16C3.58172 16 0 12.4183 0 8C0 3.58172 3.58172 0 8 0C12.4183 0 16 3.58172 16 8Z" fill="url(#paint0_linear_158064_9593)"/>
<path d="M38 8C38 12.4183 34.4183 16 30 16C25.5817 16 22 12.4183 22 8C22 3.58172 25.5817 0 30 0C34.4183 0 38 3.58172 38 8Z" fill="url(#paint1_linear_158064_9593)"/>
<path d="M60 8C60 12.4183 56.4183 16 52 16C47.5817 16 44 12.4183 44 8C44 3.58172 47.5817 0 52 0C56.4183 0 60 3.58172 60 8Z" fill="url(#paint2_linear_158064_9593)"/>
<path d="M82 8C82 12.4183 78.4183 16 74 16C69.5817 16 66 12.4183 66 8C66 3.58172 69.5817 0 74 0C78.4183 0 82 3.58172 82 8Z" fill="url(#paint3_linear_158064_9593)"/>
<path d="M104 8C104 12.4183 100.418 16 96 16C91.5817 16 88 12.4183 88 8C88 3.58172 91.5817 0 96 0C100.418 0 104 3.58172 104 8Z" fill="url(#paint4_linear_158064_9593)"/>
<path d="M126 8C126 12.4183 122.418 16 118 16C113.582 16 110 12.4183 110 8C110 3.58172 113.582 0 118 0C122.418 0 126 3.58172 126 8Z" fill="url(#paint5_linear_158064_9593)"/>
<path d="M148 8C148 12.4183 144.418 16 140 16C135.582 16 132 12.4183 132 8C132 3.58172 135.582 0 140 0C144.418 0 148 3.58172 148 8Z" fill="url(#paint6_linear_158064_9593)"/>
<path d="M170 8C170 12.4183 166.418 16 162 16C157.582 16 154 12.4183 154 8C154 3.58172 157.582 0 162 0C166.418 0 170 3.58172 170 8Z" fill="url(#paint7_linear_158064_9593)"/>
<path d="M16 30C16 34.4183 12.4183 38 8 38C3.58172 38 0 34.4183 0 30C0 25.5817 3.58172 22 8 22C12.4183 22 16 25.5817 16 30Z" fill="url(#paint8_linear_158064_9593)"/>
<path d="M38 30C38 34.4183 34.4183 38 30 38C25.5817 38 22 34.4183 22 30C22 25.5817 25.5817 22 30 22C34.4183 22 38 25.5817 38 30Z" fill="url(#paint9_linear_158064_9593)"/>
<path d="M60 30C60 34.4183 56.4183 38 52 38C47.5817 38 44 34.4183 44 30C44 25.5817 47.5817 22 52 22C56.4183 22 60 25.5817 60 30Z" fill="url(#paint10_linear_158064_9593)"/>
<path d="M82 30C82 34.4183 78.4183 38 74 38C69.5817 38 66 34.4183 66 30C66 25.5817 69.5817 22 74 22C78.4183 22 82 25.5817 82 30Z" fill="url(#paint11_linear_158064_9593)"/>
<path d="M104 30C104 34.4183 100.418 38 96 38C91.5817 38 88 34.4183 88 30C88 25.5817 91.5817 22 96 22C100.418 22 104 25.5817 104 30Z" fill="url(#paint12_linear_158064_9593)"/>
<path d="M126 30C126 34.4183 122.418 38 118 38C113.582 38 110 34.4183 110 30C110 25.5817 113.582 22 118 22C122.418 22 126 25.5817 126 30Z" fill="url(#paint13_linear_158064_9593)"/>
<path d="M148 30C148 34.4183 144.418 38 140 38C135.582 38 132 34.4183 132 30C132 25.5817 135.582 22 140 22C144.418 22 148 25.5817 148 30Z" fill="url(#paint14_linear_158064_9593)"/>
<path d="M170 30C170 34.4183 166.418 38 162 38C157.582 38 154 34.4183 154 30C154 25.5817 157.582 22 162 22C166.418 22 170 25.5817 170 30Z" fill="url(#paint15_linear_158064_9593)"/>
<path d="M16 52C16 56.4183 12.4183 60 8 60C3.58172 60 0 56.4183 0 52C0 47.5817 3.58172 44 8 44C12.4183 44 16 47.5817 16 52Z" fill="url(#paint16_linear_158064_9593)"/>
<path d="M38 52C38 56.4183 34.4183 60 30 60C25.5817 60 22 56.4183 22 52C22 47.5817 25.5817 44 30 44C34.4183 44 38 47.5817 38 52Z" fill="url(#paint17_linear_158064_9593)"/>
<path d="M60 52C60 56.4183 56.4183 60 52 60C47.5817 60 44 56.4183 44 52C44 47.5817 47.5817 44 52 44C56.4183 44 60 47.5817 60 52Z" fill="url(#paint18_linear_158064_9593)"/>
<path d="M82 52C82 56.4183 78.4183 60 74 60C69.5817 60 66 56.4183 66 52C66 47.5817 69.5817 44 74 44C78.4183 44 82 47.5817 82 52Z" fill="url(#paint19_linear_158064_9593)"/>
<path d="M104 52C104 56.4183 100.418 60 96 60C91.5817 60 88 56.4183 88 52C88 47.5817 91.5817 44 96 44C100.418 44 104 47.5817 104 52Z" fill="url(#paint20_linear_158064_9593)"/>
<path d="M126 52C126 56.4183 122.418 60 118 60C113.582 60 110 56.4183 110 52C110 47.5817 113.582 44 118 44C122.418 44 126 47.5817 126 52Z" fill="url(#paint21_linear_158064_9593)"/>
<path d="M148 52C148 56.4183 144.418 60 140 60C135.582 60 132 56.4183 132 52C132 47.5817 135.582 44 140 44C144.418 44 148 47.5817 148 52Z" fill="url(#paint22_linear_158064_9593)"/>
<path d="M170 52C170 56.4183 166.418 60 162 60C157.582 60 154 56.4183 154 52C154 47.5817 157.582 44 162 44C166.418 44 170 47.5817 170 52Z" fill="url(#paint23_linear_158064_9593)"/>
<path d="M16 74C16 78.4183 12.4183 82 8 82C3.58172 82 0 78.4183 0 74C0 69.5817 3.58172 66 8 66C12.4183 66 16 69.5817 16 74Z" fill="url(#paint24_linear_158064_9593)"/>
<path d="M38 74C38 78.4183 34.4183 82 30 82C25.5817 82 22 78.4183 22 74C22 69.5817 25.5817 66 30 66C34.4183 66 38 69.5817 38 74Z" fill="url(#paint25_linear_158064_9593)"/>
<path d="M60 74C60 78.4183 56.4183 82 52 82C47.5817 82 44 78.4183 44 74C44 69.5817 47.5817 66 52 66C56.4183 66 60 69.5817 60 74Z" fill="url(#paint26_linear_158064_9593)"/>
<path d="M82 74C82 78.4183 78.4183 82 74 82C69.5817 82 66 78.4183 66 74C66 69.5817 69.5817 66 74 66C78.4183 66 82 69.5817 82 74Z" fill="url(#paint27_linear_158064_9593)"/>
<path d="M104 74C104 78.4183 100.418 82 96 82C91.5817 82 88 78.4183 88 74C88 69.5817 91.5817 66 96 66C100.418 66 104 69.5817 104 74Z" fill="url(#paint28_linear_158064_9593)"/>
<path d="M126 74C126 78.4183 122.418 82 118 82C113.582 82 110 78.4183 110 74C110 69.5817 113.582 66 118 66C122.418 66 126 69.5817 126 74Z" fill="url(#paint29_linear_158064_9593)"/>
<path d="M148 74C148 78.4183 144.418 82 140 82C135.582 82 132 78.4183 132 74C132 69.5817 135.582 66 140 66C144.418 66 148 69.5817 148 74Z" fill="url(#paint30_linear_158064_9593)"/>
<path d="M170 74C170 78.4183 166.418 82 162 82C157.582 82 154 78.4183 154 74C154 69.5817 157.582 66 162 66C166.418 66 170 69.5817 170 74Z" fill="url(#paint31_linear_158064_9593)"/>
<path d="M16 96C16 100.418 12.4183 104 8 104C3.58172 104 0 100.418 0 96C0 91.5817 3.58172 88 8 88C12.4183 88 16 91.5817 16 96Z" fill="url(#paint32_linear_158064_9593)"/>
<path d="M38 96C38 100.418 34.4183 104 30 104C25.5817 104 22 100.418 22 96C22 91.5817 25.5817 88 30 88C34.4183 88 38 91.5817 38 96Z" fill="url(#paint33_linear_158064_9593)"/>
<path d="M60 96C60 100.418 56.4183 104 52 104C47.5817 104 44 100.418 44 96C44 91.5817 47.5817 88 52 88C56.4183 88 60 91.5817 60 96Z" fill="url(#paint34_linear_158064_9593)"/>
<path d="M82 96C82 100.418 78.4183 104 74 104C69.5817 104 66 100.418 66 96C66 91.5817 69.5817 88 74 88C78.4183 88 82 91.5817 82 96Z" fill="url(#paint35_linear_158064_9593)"/>
<path d="M104 96C104 100.418 100.418 104 96 104C91.5817 104 88 100.418 88 96C88 91.5817 91.5817 88 96 88C100.418 88 104 91.5817 104 96Z" fill="url(#paint36_linear_158064_9593)"/>
<path d="M126 96C126 100.418 122.418 104 118 104C113.582 104 110 100.418 110 96C110 91.5817 113.582 88 118 88C122.418 88 126 91.5817 126 96Z" fill="url(#paint37_linear_158064_9593)"/>
<path d="M148 96C148 100.418 144.418 104 140 104C135.582 104 132 100.418 132 96C132 91.5817 135.582 88 140 88C144.418 88 148 91.5817 148 96Z" fill="url(#paint38_linear_158064_9593)"/>
<path d="M170 96C170 100.418 166.418 104 162 104C157.582 104 154 100.418 154 96C154 91.5817 157.582 88 162 88C166.418 88 170 91.5817 170 96Z" fill="url(#paint39_linear_158064_9593)"/>
<defs>
<linearGradient id="paint0_linear_158064_9593" x1="1" y1="102.048" x2="169" y2="1.83717" gradientUnits="userSpaceOnUse">
<stop stop-color="white"/>
<stop offset="1" stop-color="#FFEC85"/>
</linearGradient>
<linearGradient id="paint1_linear_158064_9593" x1="1" y1="102.048" x2="169" y2="1.83717" gradientUnits="userSpaceOnUse">
<stop stop-color="white"/>
<stop offset="1" stop-color="#FFEC85"/>
</linearGradient>
<linearGradient id="paint2_linear_158064_9593" x1="1" y1="102.048" x2="169" y2="1.83717" gradientUnits="userSpaceOnUse">
<stop stop-color="white"/>
<stop offset="1" stop-color="#FFEC85"/>
</linearGradient>
<linearGradient id="paint3_linear_158064_9593" x1="1" y1="102.048" x2="169" y2="1.83717" gradientUnits="userSpaceOnUse">
<stop stop-color="white"/>
<stop offset="1" stop-color="#FFEC85"/>
</linearGradient>
<linearGradient id="paint4_linear_158064_9593" x1="1" y1="102.048" x2="169" y2="1.83717" gradientUnits="userSpaceOnUse">
<stop stop-color="white"/>
<stop offset="1" stop-color="#FFEC85"/>
</linearGradient>
<linearGradient id="paint5_linear_158064_9593" x1="1" y1="102.048" x2="169" y2="1.83717" gradientUnits="userSpaceOnUse">
<stop stop-color="white"/>
<stop offset="1" stop-color="#FFEC85"/>
</linearGradient>
<linearGradient id="paint6_linear_158064_9593" x1="1" y1="102.048" x2="169" y2="1.83717" gradientUnits="userSpaceOnUse">
<stop stop-color="white"/>
<stop offset="1" stop-color="#FFEC85"/>
</linearGradient>
<linearGradient id="paint7_linear_158064_9593" x1="1" y1="102.048" x2="169" y2="1.83717" gradientUnits="userSpaceOnUse">
<stop stop-color="white"/>
<stop offset="1" stop-color="#FFEC85"/>
</linearGradient>
<linearGradient id="paint8_linear_158064_9593" x1="1" y1="102.048" x2="169" y2="1.83717" gradientUnits="userSpaceOnUse">
<stop stop-color="white"/>
<stop offset="1" stop-color="#FFEC85"/>
</linearGradient>
<linearGradient id="paint9_linear_158064_9593" x1="1" y1="102.048" x2="169" y2="1.83717" gradientUnits="userSpaceOnUse">
<stop stop-color="white"/>
<stop offset="1" stop-color="#FFEC85"/>
</linearGradient>
<linearGradient id="paint10_linear_158064_9593" x1="1" y1="102.048" x2="169" y2="1.83717" gradientUnits="userSpaceOnUse">
<stop stop-color="white"/>
<stop offset="1" stop-color="#FFEC85"/>
</linearGradient>
<linearGradient id="paint11_linear_158064_9593" x1="1" y1="102.048" x2="169" y2="1.83717" gradientUnits="userSpaceOnUse">
<stop stop-color="white"/>
<stop offset="1" stop-color="#FFEC85"/>
</linearGradient>
<linearGradient id="paint12_linear_158064_9593" x1="1" y1="102.048" x2="169" y2="1.83717" gradientUnits="userSpaceOnUse">
<stop stop-color="white"/>
<stop offset="1" stop-color="#FFEC85"/>
</linearGradient>
<linearGradient id="paint13_linear_158064_9593" x1="1" y1="102.048" x2="169" y2="1.83717" gradientUnits="userSpaceOnUse">
<stop stop-color="white"/>
<stop offset="1" stop-color="#FFEC85"/>
</linearGradient>
<linearGradient id="paint14_linear_158064_9593" x1="1" y1="102.048" x2="169" y2="1.83717" gradientUnits="userSpaceOnUse">
<stop stop-color="white"/>
<stop offset="1" stop-color="#FFEC85"/>
</linearGradient>
<linearGradient id="paint15_linear_158064_9593" x1="1" y1="102.048" x2="169" y2="1.83717" gradientUnits="userSpaceOnUse">
<stop stop-color="white"/>
<stop offset="1" stop-color="#FFEC85"/>
</linearGradient>
<linearGradient id="paint16_linear_158064_9593" x1="1" y1="102.048" x2="169" y2="1.83717" gradientUnits="userSpaceOnUse">
<stop stop-color="white"/>
<stop offset="1" stop-color="#FFEC85"/>
</linearGradient>
<linearGradient id="paint17_linear_158064_9593" x1="1" y1="102.048" x2="169" y2="1.83717" gradientUnits="userSpaceOnUse">
<stop stop-color="white"/>
<stop offset="1" stop-color="#FFEC85"/>
</linearGradient>
<linearGradient id="paint18_linear_158064_9593" x1="1" y1="102.048" x2="169" y2="1.83717" gradientUnits="userSpaceOnUse">
<stop stop-color="white"/>
<stop offset="1" stop-color="#FFEC85"/>
</linearGradient>
<linearGradient id="paint19_linear_158064_9593" x1="1" y1="102.048" x2="169" y2="1.83717" gradientUnits="userSpaceOnUse">
<stop stop-color="white"/>
<stop offset="1" stop-color="#FFEC85"/>
</linearGradient>
<linearGradient id="paint20_linear_158064_9593" x1="1" y1="102.048" x2="169" y2="1.83717" gradientUnits="userSpaceOnUse">
<stop stop-color="white"/>
<stop offset="1" stop-color="#FFEC85"/>
</linearGradient>
<linearGradient id="paint21_linear_158064_9593" x1="1" y1="102.048" x2="169" y2="1.83717" gradientUnits="userSpaceOnUse">
<stop stop-color="white"/>
<stop offset="1" stop-color="#FFEC85"/>
</linearGradient>
<linearGradient id="paint22_linear_158064_9593" x1="1" y1="102.048" x2="169" y2="1.83717" gradientUnits="userSpaceOnUse">
<stop stop-color="white"/>
<stop offset="1" stop-color="#FFEC85"/>
</linearGradient>
<linearGradient id="paint23_linear_158064_9593" x1="1" y1="102.048" x2="169" y2="1.83717" gradientUnits="userSpaceOnUse">
<stop stop-color="white"/>
<stop offset="1" stop-color="#FFEC85"/>
</linearGradient>
<linearGradient id="paint24_linear_158064_9593" x1="1" y1="102.048" x2="169" y2="1.83717" gradientUnits="userSpaceOnUse">
<stop stop-color="white"/>
<stop offset="1" stop-color="#FFEC85"/>
</linearGradient>
<linearGradient id="paint25_linear_158064_9593" x1="1" y1="102.048" x2="169" y2="1.83717" gradientUnits="userSpaceOnUse">
<stop stop-color="white"/>
<stop offset="1" stop-color="#FFEC85"/>
</linearGradient>
<linearGradient id="paint26_linear_158064_9593" x1="1" y1="102.048" x2="169" y2="1.83717" gradientUnits="userSpaceOnUse">
<stop stop-color="white"/>
<stop offset="1" stop-color="#FFEC85"/>
</linearGradient>
<linearGradient id="paint27_linear_158064_9593" x1="1" y1="102.048" x2="169" y2="1.83717" gradientUnits="userSpaceOnUse">
<stop stop-color="white"/>
<stop offset="1" stop-color="#FFEC85"/>
</linearGradient>
<linearGradient id="paint28_linear_158064_9593" x1="1" y1="102.048" x2="169" y2="1.83717" gradientUnits="userSpaceOnUse">
<stop stop-color="white"/>
<stop offset="1" stop-color="#FFEC85"/>
</linearGradient>
<linearGradient id="paint29_linear_158064_9593" x1="1" y1="102.048" x2="169" y2="1.83717" gradientUnits="userSpaceOnUse">
<stop stop-color="white"/>
<stop offset="1" stop-color="#FFEC85"/>
</linearGradient>
<linearGradient id="paint30_linear_158064_9593" x1="1" y1="102.048" x2="169" y2="1.83717" gradientUnits="userSpaceOnUse">
<stop stop-color="white"/>
<stop offset="1" stop-color="#FFEC85"/>
</linearGradient>
<linearGradient id="paint31_linear_158064_9593" x1="1" y1="102.048" x2="169" y2="1.83717" gradientUnits="userSpaceOnUse">
<stop stop-color="white"/>
<stop offset="1" stop-color="#FFEC85"/>
</linearGradient>
<linearGradient id="paint32_linear_158064_9593" x1="1" y1="102.048" x2="169" y2="1.83717" gradientUnits="userSpaceOnUse">
<stop stop-color="white"/>
<stop offset="1" stop-color="#FFEC85"/>
</linearGradient>
<linearGradient id="paint33_linear_158064_9593" x1="1" y1="102.048" x2="169" y2="1.83717" gradientUnits="userSpaceOnUse">
<stop stop-color="white"/>
<stop offset="1" stop-color="#FFEC85"/>
</linearGradient>
<linearGradient id="paint34_linear_158064_9593" x1="1" y1="102.048" x2="169" y2="1.83717" gradientUnits="userSpaceOnUse">
<stop stop-color="white"/>
<stop offset="1" stop-color="#FFEC85"/>
</linearGradient>
<linearGradient id="paint35_linear_158064_9593" x1="1" y1="102.048" x2="169" y2="1.83717" gradientUnits="userSpaceOnUse">
<stop stop-color="white"/>
<stop offset="1" stop-color="#FFEC85"/>
</linearGradient>
<linearGradient id="paint36_linear_158064_9593" x1="1" y1="102.048" x2="169" y2="1.83717" gradientUnits="userSpaceOnUse">
<stop stop-color="white"/>
<stop offset="1" stop-color="#FFEC85"/>
</linearGradient>
<linearGradient id="paint37_linear_158064_9593" x1="1" y1="102.048" x2="169" y2="1.83717" gradientUnits="userSpaceOnUse">
<stop stop-color="white"/>
<stop offset="1" stop-color="#FFEC85"/>
</linearGradient>
<linearGradient id="paint38_linear_158064_9593" x1="1" y1="102.048" x2="169" y2="1.83717" gradientUnits="userSpaceOnUse">
<stop stop-color="white"/>
<stop offset="1" stop-color="#FFEC85"/>
</linearGradient>
<linearGradient id="paint39_linear_158064_9593" x1="1" y1="102.048" x2="169" y2="1.83717" gradientUnits="userSpaceOnUse">
<stop stop-color="white"/>
<stop offset="1" stop-color="#FFEC85"/>
</linearGradient>
</defs>
</svg>
