<svg width="502" height="192" viewBox="0 0 502 192" fill="none" xmlns="http://www.w3.org/2000/svg">
<path d="M48.2496 148.158C56.9477 153.258 65.8944 157.905 75.0552 162.083C84.3546 166.409 93.726 170.564 103.518 173.692C105.751 174.401 107.936 175.525 110.236 175.776C111.995 175.959 113.111 177.273 114.732 177.517C115.717 177.71 116.691 177.957 117.65 178.256C118.058 178.366 118.388 178.598 118.767 178.042C119.145 177.486 119.043 177.725 119.403 178.403C119.913 179.374 120.97 179.429 121.924 179.124C122.309 178.996 122.585 178.513 123.089 178.641C123.93 178.837 123.059 179.393 123.281 179.643C123.496 179.881 123.793 180.026 124.11 180.047C125.839 180.004 127.364 180.957 129.081 181.043C129.683 181.17 130.309 181.114 130.882 180.884C131.542 180.529 131.89 180.468 132.467 181.354C133.253 182.539 134.868 182.619 136.111 182.112C136.879 181.806 137.588 181.739 138.014 182.173C139.335 183.505 140.853 183.529 142.48 183.218C144.618 182.808 146.515 183.933 148.556 184.165C150.291 184.36 151.996 184.88 153.767 184.745C154.692 184.672 155.568 184.776 156.066 185.692C156.276 186.053 156.547 186.303 156.985 186.187C160.659 185.136 164.189 186.615 167.791 186.933C170.193 187.14 172.624 187.037 174.959 187.733C175.506 187.898 176.31 187.635 176.412 188.607C176.448 188.931 176.88 189.035 176.958 188.87C177.961 186.804 178.495 188.1 179.114 189.138C179.185 189.191 179.268 189.224 179.355 189.235C179.442 189.245 179.531 189.233 179.612 189.199C181.479 186.969 183.718 188.796 185.712 188.778C189.38 188.778 193.048 189.389 196.722 189.743C199.333 189.988 201.945 190.354 204.563 190.391C206.418 190.422 208.273 190.391 210.134 190.44C217.8 190.587 225.461 190.965 233.133 191.002C235.901 191.002 238.716 191.002 241.502 191.106C244.288 191.21 247.199 191.222 250.051 191.106C252.522 190.972 254.998 191.002 257.465 191.198C259.867 191.43 262.268 190.642 264.742 191.026C265.714 191.179 266.741 190.898 267.743 190.91C273.903 191.002 280.05 190.495 286.21 190.44C292.526 190.379 298.847 189.829 305.151 189.328C311.191 188.827 317.224 188.106 323.252 187.586C329.117 187.061 334.922 186.157 340.746 185.43C346.749 184.678 352.753 183.597 358.678 182.375C369.394 180.102 380.105 177.767 390.737 175.122C401.543 172.421 412.289 169.299 422.922 165.877C432.365 162.822 441.772 159.669 450.922 155.771C452.285 155.16 452.435 155.728 451.99 156.993C458.629 154.467 465.019 151.311 471.076 147.565C471.454 147.333 471.778 147.015 472.276 147.113C475.167 145.44 476.642 144.321 478.977 141.912C479.539 141.344 480.477 140.013 480.837 139.671C483.391 137.201 484.73 134.567 486.838 131.694C488.928 128.932 489.474 125.541 490.068 122.199C491.365 114.897 488.477 108.757 485.175 102.598C481.573 95.9194 477.745 90.1852 472.654 84.7411C469.925 81.866 467.017 79.1721 463.949 76.6757C461.086 74.3172 458.228 71.9526 455.316 69.6552C454.956 69.3742 454.332 69.0442 454.674 68.4332C454.92 68.0238 455.478 68.2132 455.875 68.4026C461.322 70.8874 466.765 73.3804 472.204 75.8814C472.348 75.9486 472.426 76.1686 472.534 76.3152C472.74 76.4614 472.955 76.594 473.177 76.7124C480.337 80.0322 487.355 83.6474 494.231 87.5578C496.098 88.6149 497.719 90.0752 499.736 90.8879C500.065 91.0783 500.45 91.1406 500.82 91.063C501.19 90.9854 501.52 90.7733 501.747 90.4663C502.348 89.7147 501.747 89.1831 501.291 88.6332C500.142 87.2702 498.793 86.0955 497.293 85.1505C493.126 82.3704 488.66 80.128 484.307 77.6717C469.641 69.4108 454.29 62.5492 439.197 55.1804C428.583 49.9929 417.542 45.783 406.892 40.6689C397.465 36.0822 387.776 32.0749 377.877 28.6686C359.441 22.4363 340.506 18.2142 321.445 14.4259C299.094 9.97779 276.52 7.05105 253.875 4.64977C240.241 3.19557 226.607 1.66804 212.919 0.879836C195.509 -0.128332 178.045 -0.0977813 160.605 0.268825C133.347 0.854965 106.146 3.05015 79.1376 6.84331C63.5285 9.04906 48.1115 12.1774 33.0788 17.1022C27.9578 18.7825 22.9929 20.7255 19.637 25.3875C19.5229 26.6889 20.1773 27.2205 21.354 27.6666C26.7091 29.689 32.1182 29.3346 37.6714 28.748C43.9091 28.0943 50.0326 26.8539 56.1982 25.8457C60.2686 25.1797 64.3209 24.3854 68.3973 23.7744C72.9119 23.1084 77.4446 22.5891 81.9712 22.0025C86.3718 21.4342 90.7723 20.8416 95.1789 20.3222C99.0872 19.8578 102.983 19.1735 106.904 18.8863C110.824 18.5992 114.852 17.9576 118.827 17.5604C121.444 17.2977 124.074 17.1877 126.703 17.0044C133.307 16.54 139.941 16.1612 146.551 15.5441C149.649 15.2569 152.824 15.7519 155.892 15.3364C159.524 14.8353 163.168 15.4952 166.783 14.7987C168.662 14.4321 170.625 14.762 172.546 14.7437C182.184 14.6459 191.821 14.6459 201.459 14.7437C208.063 14.7926 214.666 15.483 221.3 15.5563C222.777 15.5563 224.302 15.8863 225.791 15.9107C226.193 15.9107 226.607 16.1062 226.613 16.5217C226.613 17.0533 226.127 17.0105 225.767 17.0044C223.822 16.9616 221.859 16.7356 219.961 16.7722C217.5 16.8211 215.015 17.426 212.517 17.5849C212.085 17.5849 211.647 17.7926 211.22 17.7743C205.307 17.5421 199.406 18.1042 193.498 18.2692C188.191 18.4159 182.896 19.1613 177.601 19.6623C173.548 20.0473 169.49 20.3772 165.456 20.8843C159.128 21.7092 152.812 22.6563 146.491 23.5728C138.188 24.7948 129.951 26.4201 121.75 28.192C114.342 29.7929 106.928 31.3632 99.5975 33.2879C95.1189 34.4671 90.6583 35.7686 86.1857 36.9967C70.5142 41.5272 55.3925 47.8357 41.1054 55.8036C33.1289 60.287 25.527 65.4286 18.3762 71.1766C18.0821 71.4088 17.8419 71.7388 17.3977 71.6227C11.3975 76.3914 6.32902 82.2628 2.45496 88.9326C0.25354 92.8527 -0.512175 97.4398 0.2937 101.88C0.960087 106.023 3.10934 109.53 5.31863 112.951C9.32296 119.153 14.3959 124.396 19.9431 129.168C28.2708 136.283 37.2768 142.532 46.8268 147.822C47.326 147.74 47.8368 147.861 48.2496 148.158ZM35.5882 126.033C30.6113 121.554 26.0907 116.691 22.5186 110.96C21.194 108.928 20.1818 106.703 19.5169 104.361C18.2081 99.2893 16.3651 92.9225 19.5169 88.9326C23.3831 84.0445 25.268 82.8765 33.0788 76.6323C35.156 75.1904 41.715 70.6644 43.7982 69.2529C46.3117 67.55 50.519 65.8547 52.7643 64.5288C60.5988 59.879 68.9317 56.2619 77.2645 52.6447C78.2131 52.2353 79.2997 52.0948 79.5879 50.7139C79.732 50.0418 80.6505 49.8707 81.2809 49.6324C92.689 45.3545 104.312 41.6955 116.101 38.6709C124.656 36.4468 133.277 34.5527 141.916 32.8235C149.643 31.2837 157.453 30.2145 165.192 28.7358C172.93 27.2572 180.921 26.6339 188.761 25.4241C193.21 24.7337 197.725 24.5321 202.215 24.2021C207.456 23.7866 212.709 23.1267 217.95 23.1878C221.426 23.2245 224.872 22.8029 228.354 22.9251C230.864 23.0107 233.427 22.6868 235.961 22.7418C240.836 22.8457 245.723 22.2286 250.591 22.9557C252.23 23.2001 253.797 22.4669 255.454 22.6441C261.608 23.2551 267.803 22.9618 273.975 23.3039C275.884 23.4139 277.727 23.6889 279.594 23.9149C279.78 23.9149 279.99 24.1288 280.129 24.0738C282.572 23.0901 285.081 24.3366 287.495 23.8539C288.894 23.5667 289.86 24.4649 291.097 24.6298C293.396 24.9231 295.69 24.6665 297.983 24.8009C304.869 25.1981 311.665 26.3651 318.527 26.9761C327.36 27.7623 336.179 28.8173 344.984 30.1411C353.209 31.3632 361.476 32.3102 369.599 34.1249C377.328 35.79 384.925 38.0365 392.328 40.8461C398.963 43.3665 405.458 46.2527 411.785 49.4919C416.03 51.7037 420.238 53.9828 424.453 56.2497C425.311 56.714 426.32 57.0501 426.77 58.0827C432.329 61.706 437.858 65.3659 442.979 69.6552C453.786 78.7043 465.768 96.2364 472.276 108.988C474.624 113.589 475.476 119.603 474.485 124.882C473.783 128.616 468.268 132.87 465.501 135.1C459.317 140.086 450.255 142.188 442.979 145.219C424.002 153.162 404.419 159.126 384.595 164.38C371.862 167.753 359.014 170.625 346.089 173.106C331.795 175.843 317.356 177.499 302.864 178.715C279.558 180.676 256.211 181.293 232.845 181.354C219.121 181.391 205.401 180.983 191.685 180.132C181.149 179.521 170.673 178.122 160.143 176.985C148.37 175.714 136.729 173.735 125.112 171.303C111.789 168.51 98.7385 164.504 86.1196 159.333C76.7463 155.573 67.6202 151.204 58.7977 146.252C50.4947 141.528 42.7136 132.447 35.5882 126.033Z" fill="#FFDA0D"/>
</svg>
