<svg width="1255" height="270" viewBox="0 0 1255 270" fill="none" xmlns="http://www.w3.org/2000/svg">
<path d="M49.2496 223.158C57.9477 228.258 66.8944 232.906 76.0552 237.083C85.3546 241.409 94.726 245.564 104.518 248.692C106.751 249.401 108.936 250.525 111.236 250.776C112.995 250.959 114.111 252.273 115.732 252.517C116.717 252.71 117.691 252.957 118.65 253.257C119.058 253.367 119.388 253.599 119.767 253.043C120.145 252.487 120.043 252.725 120.403 253.403C120.913 254.375 121.97 254.43 122.924 254.124C123.309 253.996 123.585 253.513 124.089 253.641C124.93 253.837 124.059 254.393 124.281 254.644C124.496 254.882 124.793 255.026 125.11 255.047C126.839 255.004 128.364 255.957 130.081 256.043C130.683 256.17 131.309 256.115 131.882 255.884C132.542 255.529 132.89 255.468 133.467 256.354C134.253 257.54 135.868 257.619 137.111 257.112C137.879 256.807 138.588 256.739 139.014 257.173C140.335 258.505 141.853 258.53 143.48 258.218C145.618 257.809 147.515 258.933 149.556 259.165C151.291 259.361 152.996 259.88 154.767 259.745C155.692 259.672 156.568 259.776 157.066 260.693C157.276 261.053 157.547 261.304 157.985 261.187C161.659 260.137 165.189 261.615 168.791 261.933C171.193 262.141 173.624 262.037 175.959 262.733C176.506 262.898 177.31 262.636 177.412 263.607C177.448 263.931 177.88 264.035 177.958 263.87C178.961 261.805 179.495 263.1 180.114 264.139C180.185 264.191 180.268 264.224 180.355 264.235C180.442 264.246 180.531 264.234 180.612 264.2C182.479 261.97 184.718 263.797 186.712 263.778C190.38 263.778 194.048 264.389 197.722 264.744C200.333 264.988 202.945 265.355 205.563 265.391C207.418 265.422 209.273 265.391 211.134 265.44C218.8 265.587 226.461 265.966 234.133 266.002C236.901 266.002 239.716 266.002 242.502 266.106C245.288 266.21 248.199 266.222 251.051 266.106C253.522 265.972 255.998 266.003 258.465 266.198C260.867 266.43 263.268 265.642 265.742 266.027C266.714 266.179 267.741 265.898 268.743 265.911C274.903 266.002 281.05 265.495 287.21 265.44C293.526 265.379 299.847 264.829 306.151 264.328C312.191 263.827 318.224 263.106 324.252 262.587C330.117 262.061 335.922 261.157 341.746 260.43C347.749 259.678 353.753 258.597 359.678 257.375C370.394 255.102 381.105 252.768 391.737 250.122C402.543 247.421 413.289 244.299 423.922 240.877C433.365 237.822 442.772 234.67 451.922 230.771C453.285 230.16 453.435 230.729 452.99 231.993C459.629 229.468 466.019 226.311 472.076 222.565C472.454 222.333 472.778 222.016 473.276 222.113C476.167 220.44 477.642 219.321 479.977 216.912C480.539 216.344 481.477 215.013 481.837 214.671C484.391 212.201 485.73 209.567 487.838 206.694C489.928 203.933 490.474 200.541 491.068 197.199C492.365 189.898 489.477 183.757 486.175 177.598C482.573 170.92 478.745 165.185 473.654 159.741C470.925 156.866 468.017 154.172 464.949 151.676C462.086 149.317 459.228 146.953 456.316 144.655C455.956 144.374 455.332 144.044 455.674 143.433C455.92 143.024 456.478 143.213 456.875 143.403C462.322 145.888 467.765 148.381 473.204 150.882C473.348 150.949 473.426 151.169 473.534 151.315C473.74 151.462 473.955 151.594 474.177 151.713C481.337 155.032 488.355 158.648 495.231 162.558C497.098 163.615 498.719 165.075 500.736 165.888C501.065 166.079 501.45 166.141 501.82 166.063C502.19 165.986 502.52 165.774 502.747 165.467C503.348 164.715 502.747 164.183 502.291 163.633C501.142 162.27 499.793 161.096 498.293 160.151C494.126 157.371 489.66 155.128 485.307 152.672C470.641 144.411 455.29 137.549 440.197 130.181C429.583 124.993 418.542 120.783 407.892 115.669C398.465 111.082 388.776 107.075 378.877 103.669C360.441 97.4365 341.506 93.2145 322.445 89.4262C300.094 84.978 277.52 82.0513 254.875 79.65C241.241 78.1958 227.607 76.6683 213.919 75.8801C196.509 74.8719 179.045 74.9025 161.605 75.2691C134.347 75.8552 107.146 78.0504 80.1376 81.8436C64.5285 84.0493 49.1115 87.1777 34.0788 92.1024C28.9578 93.7827 23.9929 95.7257 20.637 100.388C20.5229 101.689 21.1773 102.221 22.354 102.667C27.7091 104.689 33.1182 104.335 38.6714 103.748C44.9091 103.095 51.0326 101.854 57.1982 100.846C61.2686 100.18 65.3209 99.3857 69.3973 98.7747C73.9119 98.1087 78.4446 97.5893 82.9712 97.0027C87.3718 96.4345 91.7723 95.8418 96.1789 95.3224C100.087 94.8581 103.983 94.1738 107.904 93.8866C111.824 93.5994 115.852 92.9578 119.827 92.5607C122.444 92.2979 125.074 92.188 127.703 92.0047C134.307 91.5403 140.941 91.1615 147.551 90.5444C150.649 90.2572 153.824 90.7521 156.892 90.3366C160.524 89.8356 164.168 90.4955 167.783 89.7989C169.662 89.4323 171.625 89.7623 173.546 89.7439C183.184 89.6462 192.821 89.6462 202.459 89.7439C209.063 89.7928 215.666 90.4832 222.3 90.5566C223.777 90.5566 225.302 90.8865 226.791 90.9109C227.193 90.9109 227.607 91.1065 227.613 91.522C227.613 92.0535 227.127 92.0108 226.767 92.0047C224.822 91.9619 222.859 91.7358 220.961 91.7725C218.5 91.8214 216.015 92.4263 213.517 92.5851C213.085 92.5851 212.647 92.7929 212.22 92.7745C206.307 92.5424 200.406 93.1045 194.498 93.2695C189.191 93.4161 183.896 94.1615 178.601 94.6626C174.548 95.0475 170.49 95.3774 166.456 95.8846C160.128 96.7094 153.812 97.6565 147.491 98.573C139.188 99.795 130.951 101.42 122.75 103.192C115.342 104.793 107.928 106.363 100.597 108.288C96.1189 109.467 91.6583 110.769 87.1857 111.997C71.5142 116.527 56.3925 122.836 42.1054 130.804C34.1289 135.287 26.527 140.429 19.3762 146.177C19.0821 146.409 18.8419 146.739 18.3977 146.623C12.3975 151.392 7.32902 157.263 3.45496 163.933C1.25354 167.853 0.487825 172.44 1.2937 176.88C1.96009 181.023 4.10934 184.53 6.31863 187.952C10.323 194.153 15.3959 199.396 20.9431 204.168C29.2708 211.283 38.2768 217.532 47.8268 222.822C48.326 222.74 48.8368 222.861 49.2496 223.158ZM36.5882 201.033C31.6113 196.555 27.0907 191.691 23.5186 185.96C22.194 183.928 21.1818 181.703 20.5169 179.361C19.2081 174.289 17.3651 167.923 20.5169 163.933C24.3831 159.045 26.268 157.877 34.0788 151.633C36.156 150.191 42.715 145.665 44.7982 144.253C47.3117 142.55 51.519 140.855 53.7643 139.529C61.5988 134.879 69.9317 131.262 78.2645 127.645C79.2131 127.236 80.2997 127.095 80.5879 125.714C80.732 125.042 81.6505 124.871 82.2809 124.633C93.689 120.355 105.312 116.696 117.101 113.671C125.656 111.447 134.277 109.553 142.916 107.824C150.643 106.284 158.453 105.215 166.192 103.736C173.93 102.257 181.921 101.634 189.761 100.424C194.21 99.7339 198.725 99.5323 203.215 99.2024C208.456 98.7869 213.709 98.127 218.95 98.1881C222.426 98.2247 225.872 97.8032 229.354 97.9254C231.864 98.0109 234.427 97.6871 236.961 97.7421C241.836 97.8459 246.723 97.2288 251.591 97.9559C253.23 98.2003 254.797 97.4671 256.454 97.6443C262.608 98.2553 268.803 97.962 274.975 98.3042C276.884 98.4142 278.727 98.6891 280.594 98.9152C280.78 98.9152 280.99 99.129 281.129 99.0741C283.572 98.0903 286.081 99.3368 288.495 98.8541C289.894 98.5669 290.86 99.4651 292.097 99.6301C294.396 99.9234 296.69 99.6667 298.983 99.8012C305.869 100.198 312.665 101.365 319.527 101.976C328.36 102.763 337.179 103.818 345.984 105.141C354.209 106.363 362.476 107.31 370.599 109.125C378.328 110.79 385.925 113.037 393.328 115.846C399.963 118.367 406.458 121.253 412.785 124.492C417.03 126.704 421.238 128.983 425.453 131.25C426.311 131.714 427.32 132.05 427.77 133.083C433.329 136.706 438.858 140.366 443.979 144.655C454.786 153.705 466.768 171.237 473.276 183.988C475.624 188.589 476.476 194.603 475.485 199.883C474.783 203.616 469.268 207.87 466.501 210.1C460.317 215.086 451.255 217.189 443.979 220.219C425.002 228.162 405.419 234.126 385.595 239.38C372.862 242.753 360.014 245.625 347.089 248.106C332.795 250.843 318.356 252.499 303.864 253.715C280.558 255.676 257.211 256.293 233.845 256.354C220.121 256.391 206.401 255.984 192.685 255.132C182.149 254.521 171.673 253.122 161.143 251.986C149.37 250.715 137.729 248.735 126.112 246.303C112.789 243.511 99.7385 239.505 87.1196 234.334C77.7463 230.573 68.6202 226.204 59.7977 221.252C51.4947 216.528 43.7136 207.447 36.5882 201.033Z" fill="#FFDA0D"/>
<path d="M328.274 265.463C344.874 263.679 361.24 260.514 377.503 256.811C393.767 253.108 409.76 248.721 425.585 243.552C438.415 239.361 451.16 234.913 463.407 229.102C466.871 227.452 470.329 225.76 473.271 223.193C467.141 227.102 460.655 230.4 453.904 233.043C453.675 233.135 453.351 233.385 453.213 233.275C451.106 231.583 449.413 233.513 447.81 234.149C434.776 239.232 421.479 243.387 408.091 247.255C388.344 252.992 368.302 257.618 348.056 261.113C337.01 263.007 325.843 264.314 314.701 265.237C306.494 265.921 298.275 266.459 290.044 266.844C281.813 267.229 273.697 267.455 265.526 267.663C259.006 267.809 252.482 267.844 245.955 267.767C240.251 267.687 234.548 267.467 228.827 267.541C222.157 267.626 215.499 267.003 208.841 266.93C200.208 266.826 191.665 265.707 183.086 265.041C182.778 264.968 182.457 264.968 182.149 265.041C180.024 265.94 178.043 265.329 176.08 264.479C175.429 264.232 174.74 264.104 174.045 264.101C170.082 263.874 166.174 263.166 162.236 262.72C160.927 262.567 159.624 262.243 158.304 262.628C157.997 262.72 157.577 262.787 157.385 262.579C155.896 260.917 153.867 261.583 152.072 261.253C150.151 260.893 148.194 260.746 146.333 260.086C144.73 259.518 143.007 260.508 141.488 259.842C138.564 258.565 135.34 258.95 132.332 257.789C130.501 257.086 128.166 257.178 126.125 256.61C122.036 255.473 117.774 254.874 113.866 253.237C112.317 252.589 110.708 252.455 109.189 251.825C107.46 251.104 105.629 250.603 103.858 249.956C102.087 249.308 100.37 248.825 98.6649 248.165C96.9599 247.505 95.1528 246.772 93.3998 246.063C91.6468 245.355 89.8457 244.75 88.1227 244.011C82.6235 241.64 77.1904 239.122 71.7872 236.544C64.8412 233.22 58.0332 229.621 51.2733 225.925C50.1146 225.314 49.1 224.385 47.8213 223.975C49.9285 225.729 52.414 226.841 54.7853 228.13C74.0806 238.646 94.0062 247.683 115.048 253.988C125.872 257.159 136.862 259.711 147.966 261.632C156.875 263.233 165.88 264.278 174.873 265.365C193.252 267.57 211.733 268.775 230.237 268.976C247.293 269.184 264.343 269.282 281.393 268.671C297.068 268.097 312.695 267.131 328.274 265.463ZM447.84 234.699C448.59 233.568 449.947 233.904 450.986 233.477C450.579 233.9 450.088 234.228 449.545 234.439C449.002 234.65 448.42 234.738 447.84 234.699C447.234 235.298 446.447 235.671 445.607 235.756C446.195 234.613 447.042 234.699 447.84 234.699ZM153.951 261.742C154.834 261.638 155.56 261.363 156.172 262.139C155.344 262.591 154.743 262.127 153.951 261.742Z" fill="#FFDA0D"/>
<path d="M71.7928 235.402C77.196 237.987 82.6292 240.498 88.1284 242.869C89.8514 243.608 91.6584 244.213 93.4054 244.922C95.1524 245.631 96.9115 246.346 98.6705 247.024C100.43 247.702 102.14 248.191 103.864 248.814C105.587 249.437 107.466 249.963 109.195 250.684C110.713 251.295 112.322 251.448 113.871 252.095C117.78 253.733 122.042 254.332 126.13 255.468C128.172 256.03 130.507 255.945 132.338 256.647C135.34 257.808 138.57 257.423 141.493 258.7C143.012 259.366 144.735 258.376 146.338 258.945C148.199 259.605 150.156 259.751 152.078 260.112C153.879 260.442 155.902 259.776 157.391 261.438C157.583 261.645 157.991 261.578 158.309 261.487C159.63 261.102 160.933 261.425 162.241 261.578C166.18 262.024 170.088 262.733 174.05 262.959C174.745 262.962 175.434 263.091 176.086 263.338C178.049 264.187 180.03 264.798 182.155 263.9C182.463 263.827 182.784 263.827 183.092 263.9C191.671 264.59 200.214 265.684 208.847 265.788C215.504 265.861 222.162 266.485 228.832 266.399C234.548 266.326 240.239 266.546 245.96 266.625C252.484 266.711 259.008 266.676 265.532 266.521C273.7 266.334 281.873 266.061 290.05 265.702C298.281 265.336 306.499 264.78 314.706 264.096C325.873 263.173 337.015 261.865 348.062 259.971C368.308 256.477 388.35 251.85 408.096 246.113C421.484 242.246 434.782 238.097 447.786 233.007C449.407 232.396 451.099 230.441 453.189 232.134C453.327 232.244 453.651 231.993 453.879 231.901C460.631 229.259 467.116 225.961 473.246 222.052C472.76 221.954 472.436 222.272 472.046 222.504C465.989 226.25 459.599 229.406 452.961 231.932C453.405 230.673 453.255 230.129 451.892 230.71C442.743 234.608 433.335 237.773 423.892 240.816C413.259 244.238 402.531 247.36 391.707 250.061C381.075 252.706 370.365 255.04 359.648 257.313C353.717 258.535 347.731 259.641 341.716 260.368C335.892 261.095 330.087 262 324.222 262.525C318.218 263.063 312.161 263.747 306.121 264.267C299.818 264.786 293.514 265.318 287.18 265.379C281.021 265.434 274.873 265.941 268.713 265.849C267.711 265.849 266.684 266.118 265.712 265.965C263.262 265.58 260.855 266.368 258.435 266.136C255.969 265.941 253.492 265.911 251.021 266.045C248.169 266.167 245.276 266.167 242.472 266.045C239.669 265.922 236.871 265.953 234.103 265.941C226.431 265.904 218.77 265.525 211.104 265.379C209.243 265.342 207.388 265.379 205.533 265.33C202.915 265.293 200.304 264.927 197.692 264.682C194.018 264.334 190.35 263.692 186.682 263.717C184.689 263.717 182.449 261.884 180.582 264.138C180.501 264.172 180.412 264.184 180.325 264.174C180.238 264.163 180.155 264.13 180.084 264.077C179.483 263.038 178.931 261.743 177.929 263.808C177.851 263.973 177.418 263.869 177.382 263.546C177.28 262.574 176.476 262.837 175.929 262.672C173.594 261.975 171.127 262.061 168.761 261.871C165.159 261.554 161.629 260.075 157.955 261.126C157.517 261.248 157.247 260.992 157.036 260.631C156.514 259.715 155.662 259.611 154.737 259.684C152.966 259.818 151.261 259.299 149.526 259.104C147.485 258.871 145.588 257.747 143.451 258.157C141.824 258.468 140.305 258.444 138.984 257.112C138.558 256.678 137.849 256.745 137.081 257.051C135.826 257.558 134.223 257.478 133.437 256.293C132.836 255.407 132.512 255.468 131.852 255.822C131.28 256.053 130.653 256.108 130.051 255.981C128.334 255.896 126.809 254.943 125.08 254.985C124.763 254.965 124.466 254.82 124.251 254.582C124.029 254.332 124.9 253.776 124.059 253.58C123.555 253.464 123.279 253.934 122.895 254.063C121.94 254.368 120.883 254.313 120.373 253.342C120.013 252.664 120.085 252.474 119.737 252.981C119.389 253.488 119.028 253.305 118.62 253.195C117.661 252.896 116.687 252.649 115.702 252.456C114.081 252.211 112.965 250.898 111.206 250.714C108.906 250.47 106.721 249.34 104.488 248.631C94.6962 245.521 85.3247 241.366 76.0253 237.022C66.8645 232.844 57.9179 228.197 49.2197 223.097C48.8051 222.804 48.2945 222.688 47.7969 222.773C49.0756 223.182 50.0902 224.087 51.2489 224.722C58.0388 228.48 64.8468 232.079 71.7928 235.402Z" fill="#FFDA0D"/>
<path d="M90.9873 108.303C98.6778 105.969 106.482 103.935 114.287 102.102C124.379 99.7188 134.537 97.6719 144.737 95.8511C152.901 94.3907 161.126 93.2726 169.351 92.24C177.888 91.1707 186.455 90.352 195.022 89.7165C200.893 89.2827 206.789 88.6167 212.714 88.7817C215.989 88.8534 219.262 88.5811 222.482 87.969C224.691 87.5596 226.858 88.3173 228.816 88.024C223.412 87.4863 217.799 87.5291 212.18 87.1319C209.688 86.9609 207.167 86.8814 204.657 86.8814C195.898 86.8814 187.145 86.7042 178.392 86.9242C167.208 87.2114 156.023 87.4252 144.851 88.2806C138.247 88.7817 131.685 89.411 125.081 89.6188C121.119 89.741 117.205 90.5169 113.254 90.8897C100.149 92.1117 87.1391 94.1219 74.0875 95.7777C66.0368 96.8226 58.0822 98.6189 50.0735 99.8654C44.2441 100.776 38.3847 101.821 32.4293 101.283C29.7757 101.045 27.3503 99.9143 24.8348 99.1383C23.6341 98.7717 23.8142 97.8735 24.0364 96.9631C23.376 97.8735 23.2079 98.9061 24.4086 99.2788C27.6445 100.287 30.7423 101.68 34.1883 102.053C39.6515 102.664 45.0306 101.955 50.3557 101.167C61.5462 99.511 72.6767 97.5008 83.9032 96.071C95.568 94.5985 107.209 92.9243 118.91 91.794C128.365 90.8652 137.839 90.2603 147.318 89.6554C165.419 88.5006 183.537 88.2256 201.668 88.3662C202.304 88.3662 203.049 88.1157 203.703 88.8611C203.049 88.9283 202.502 88.9955 201.986 89.0261C189.979 89.6737 178.02 90.8591 166.091 92.3683C147.806 94.7406 129.656 98.0915 111.717 102.407C104.609 104.094 97.5431 105.945 90.5791 108.187C90.5791 108.261 90.5791 108.334 90.5791 108.401L90.9873 108.303Z" fill="#FFDA0D"/>
<path d="M21.4659 102.545C23.9814 103.321 26.4068 104.451 29.0603 104.689C35.0158 105.227 40.8752 104.182 46.7046 103.272C54.7313 102.05 62.6859 100.217 70.7186 99.184C83.7701 97.4976 96.7797 95.518 109.885 94.2959C113.836 93.9232 117.75 93.1472 121.712 93.025C128.316 92.8173 134.92 92.188 141.482 91.6869C152.654 90.8315 163.839 90.6177 175.023 90.3305C183.776 90.1105 192.529 90.2877 201.289 90.2877C203.798 90.2877 206.319 90.3671 208.811 90.5382C214.43 90.9354 220.067 90.8926 225.447 91.4303C223.489 91.7236 221.322 90.9659 219.113 91.3753C215.902 91.975 212.639 92.2371 209.375 92.1574C203.45 91.9924 197.554 92.6584 191.683 93.0922C183.116 93.7033 174.549 94.5465 166.012 95.6157C157.781 96.6483 149.556 97.7665 141.398 99.2268C131.192 101.06 121.04 103.095 110.948 105.477C103.143 107.31 95.3389 109.376 87.6364 111.71L87.2341 111.783V111.979C91.7067 110.757 96.1674 109.449 100.646 108.27C107.976 106.345 115.391 104.775 122.799 103.174C131 101.402 139.236 99.7645 147.539 98.5547C153.861 97.6382 160.147 96.6911 166.504 95.8662C170.539 95.3469 174.597 95.0169 178.649 94.6442C183.944 94.1432 189.239 93.4222 194.547 93.2511C200.454 93.0861 206.355 92.524 212.269 92.7562C212.695 92.7562 213.133 92.5912 213.566 92.5668C216.063 92.4079 218.549 91.803 221.01 91.7541C222.907 91.7175 224.87 91.9435 226.815 91.9863C227.176 91.9863 227.674 92.0352 227.662 91.5036C227.662 91.0759 227.242 90.8926 226.839 90.8926C225.332 90.8926 223.838 90.5566 222.349 90.5382C215.745 90.4649 209.141 89.7745 202.507 89.7256C192.874 89.6482 183.236 89.6482 173.594 89.7256C171.673 89.7256 169.71 89.414 167.831 89.7806C164.229 90.4771 160.573 89.8172 156.941 90.3183C153.873 90.7338 150.697 90.2388 147.599 90.526C140.995 91.137 134.392 91.5219 127.752 91.9863C125.122 92.1696 122.493 92.2796 119.875 92.5423C115.901 92.9395 111.939 93.575 107.952 93.8682C103.966 94.1615 100.148 94.8397 96.2274 95.3041C91.8208 95.8235 87.4203 96.4161 83.0197 96.9844C78.4931 97.5954 73.9604 98.0903 69.4458 98.7563C65.3694 99.3673 61.3171 100.162 57.2467 100.828C51.0631 101.842 44.9396 103.064 38.7019 103.73C33.1487 104.341 27.7395 104.671 22.3844 102.648C21.1837 102.209 20.5534 101.671 20.6674 100.369C20.4453 101.28 20.2652 102.178 21.4659 102.545Z" fill="#FFDA0D"/>
<path d="M458.543 146.142C463.081 149.937 467.608 153.737 471.492 158.277C473.347 160.44 475.388 162.456 477.129 164.723C482.575 171.817 487.768 179.173 489.028 188.332C489.551 191.621 489.37 194.985 488.496 198.195C487.623 201.406 486.078 204.386 483.967 206.932C482.04 209.302 479.765 211.325 477.796 213.653C481.134 211.007 484.4 208.105 486.297 204.304C489.899 197.223 490.853 189.793 487.804 182.076C483.685 171.634 476.841 163.189 469.277 155.252C465.074 150.853 460.404 146.991 455.793 143.032C456.699 143.259 457.583 143.568 458.435 143.955L470.159 149.002C464.666 146.374 459.167 143.741 453.35 141.761C455.031 143.301 456.808 144.694 458.543 146.142Z" fill="#FFDA0D"/>
<path d="M472.082 150.839C466.642 148.342 461.199 145.849 455.752 143.36C455.338 143.171 454.779 142.981 454.551 143.391C454.209 143.965 454.834 144.319 455.194 144.613C458.105 146.91 460.963 149.275 463.827 151.633C466.895 154.129 469.802 156.823 472.532 159.698C477.623 165.143 482.468 170.825 486.058 177.503C489.36 183.613 492.247 189.803 490.951 197.105C490.35 200.447 489.81 203.826 487.721 206.6C485.612 209.472 483.268 212.158 480.715 214.628C480.354 214.971 479.928 215.307 480.03 215.918C482.005 213.608 484.275 211.586 486.202 209.196C488.318 206.653 489.868 203.674 490.747 200.464C491.625 197.253 491.812 193.888 491.293 190.597C490.032 181.432 484.839 174.1 479.394 166.988C477.653 164.721 475.612 162.711 473.757 160.542C469.872 156.002 465.352 152.201 460.807 148.407C459.072 146.959 457.295 145.566 455.632 144.026C461.437 146.006 466.937 148.639 472.442 151.267C472.304 151.126 472.226 150.906 472.082 150.839Z" fill="#FFDA0D"/>
<path d="M62.4035 120.587C69.6028 117.437 76.9825 114.731 84.5023 112.485C85.3571 112.215 86.2247 111.989 87.1018 111.807C87.0971 111.762 87.104 111.716 87.1219 111.674C87.1398 111.632 87.168 111.596 87.2039 111.569C86.833 111.579 86.4635 111.62 86.0992 111.691C80.105 113.395 74.2016 115.414 68.413 117.74C53.05 124.027 38.1253 131.231 24.7676 141.356C22.5883 143.011 20.0488 144.252 18.4219 146.604C27.1695 139.52 36.5662 133.308 46.4822 128.054C51.6632 125.292 57.0483 122.958 62.4035 120.587Z" fill="#FFDA0D"/>
<path d="M19.4063 146.158C26.5571 140.41 34.159 135.269 42.1355 130.785C56.4226 122.817 71.5442 116.509 87.2157 111.978C87.1616 111.935 87.1234 111.875 87.1077 111.807C86.2305 111.989 85.3629 112.215 84.5082 112.485C76.9864 114.731 69.6047 117.436 62.4033 120.587C57.0482 122.958 51.6631 125.292 46.4881 128.054C36.5721 133.308 27.1754 139.52 18.4277 146.604C18.872 146.72 19.1121 146.39 19.4063 146.158Z" fill="#FFDA0D"/>
<path d="M87.1084 111.807H87.2165C87.2165 111.74 87.2165 111.667 87.2165 111.593C87.183 111.618 87.1558 111.65 87.137 111.687C87.1182 111.724 87.1084 111.765 87.1084 111.807Z" fill="#FFDA0D"/>
<path d="M87.1084 111.807C87.1242 111.875 87.1623 111.935 87.2165 111.978V111.783L87.1084 111.807Z" fill="#FFDA0D"/>
<path d="M80.6065 126.409C88.9033 122.987 97.5483 120.58 106.163 118.142C126.281 112.46 146.771 108.592 167.399 105.341C174.681 104.193 181.987 103.197 189.312 102.445C195.88 101.767 202.447 101.083 209.051 100.686C216.658 100.239 224.264 99.9706 231.864 99.8362C238.714 99.714 245.558 99.4085 252.42 99.7751C259.138 100.129 265.88 99.9462 272.616 100.013C277.053 100.062 281.537 100.123 285.926 100.551C291.977 101.162 298.077 101.132 304.099 102.06C311.165 103.148 318.315 103.502 325.417 104.26C333.011 105.066 340.57 106.185 348.146 107.144C359.553 108.586 370.839 110.706 381.766 114.348C391.217 117.463 400.428 121.291 409.322 125.798C414.431 128.407 419.528 130.979 424.384 134.065C423.934 133.032 422.926 132.696 422.067 132.232C417.865 129.965 413.662 127.686 409.4 125.474C403.074 122.244 396.581 119.365 389.948 116.853C382.546 114.043 374.949 111.797 367.219 110.132C359.072 108.299 350.806 107.394 342.605 106.148C333.8 104.816 324.981 103.761 316.147 102.983C309.285 102.372 302.49 101.205 295.604 100.808C293.31 100.673 291.017 100.93 288.718 100.637C287.517 100.484 286.52 99.5735 285.115 99.8606C282.714 100.343 280.193 99.0969 277.749 100.081C277.611 100.136 277.401 99.9462 277.215 99.9218C275.348 99.6773 273.505 99.4024 271.596 99.3107C265.424 98.9686 259.228 99.3107 253.075 98.6508C251.418 98.4736 249.851 99.2069 248.212 98.9625C243.343 98.2354 238.456 98.8525 233.581 98.7486C231.048 98.6936 228.485 99.0175 225.975 98.9319C222.493 98.8097 219.047 99.2313 215.571 99.1946C210.33 99.1335 205.077 99.8057 199.836 100.209C195.345 100.563 190.831 100.765 186.382 101.431C178.541 102.653 170.623 103.264 162.812 104.743C155.002 106.221 147.263 107.291 139.537 108.83C130.886 110.559 122.265 112.454 113.722 114.678C101.933 117.702 90.3097 121.361 78.9015 125.639C78.2711 125.877 77.3526 126.049 77.2085 126.721C76.9204 128.102 75.8337 128.242 74.8852 128.651C66.5523 132.269 58.2195 135.886 50.3849 140.536C48.1396 141.862 45.5821 142.735 43.8291 144.868C49.9205 140.911 56.2848 137.407 62.8722 134.383C68.7256 131.627 74.615 128.884 80.6065 126.409Z" fill="#FFDA0D"/>
<path d="M447.857 233.557C448.437 233.597 449.019 233.509 449.562 233.298C450.105 233.087 450.597 232.758 451.003 232.335C449.965 232.763 448.608 232.427 447.857 233.557Z" fill="#FFDA0D"/>
<path d="M445.606 234.621C446.447 234.535 447.234 234.163 447.84 233.563C447.041 233.563 446.195 233.478 445.606 234.621Z" fill="#FFDA0D"/>
<path d="M447.846 233.563H447.84L447.852 233.57L447.846 233.563Z" fill="#FFDA0D"/>
<path d="M447.849 233.567L447.846 233.563L447.849 233.567Z" fill="#FFDA0D"/>
<path d="M153.951 260.607C154.75 260.992 155.35 261.456 156.172 261.004C155.56 260.228 154.834 260.503 153.951 260.607Z" fill="#FFDA0D"/>
<path d="M610.661 53.92C610.661 60.832 609.221 66.944 606.341 72.256C603.461 77.504 599.397 81.632 594.149 84.64C588.901 87.648 582.693 89.152 575.525 89.152C568.421 89.152 562.309 87.68 557.189 84.736C552.069 81.792 548.133 77.76 545.381 72.64C542.629 67.456 541.253 61.568 541.253 54.976C541.253 48.192 542.693 42.144 545.573 36.832C548.453 31.52 552.517 27.36 557.765 24.352C563.077 21.28 569.317 19.744 576.485 19.744C583.525 19.744 589.573 21.216 594.629 24.16C599.749 27.04 603.685 31.072 606.437 36.256C609.253 41.376 610.661 47.264 610.661 53.92ZM602.117 54.88C602.117 50.848 601.637 46.912 600.677 43.072C599.717 39.232 598.213 35.776 596.165 32.704C594.117 29.632 591.429 27.2 588.101 25.408C584.773 23.552 580.741 22.624 576.005 22.624C571.269 22.624 567.237 23.552 563.909 25.408C560.581 27.2 557.893 29.632 555.845 32.704C553.797 35.776 552.293 39.2 551.333 42.976C550.373 46.688 549.893 50.464 549.893 54.304C549.893 58.144 550.373 61.952 551.333 65.728C552.293 69.504 553.829 72.96 555.941 76.096C558.053 79.232 560.805 81.728 564.197 83.584C567.589 85.44 571.685 86.368 576.485 86.368C581.221 86.368 585.221 85.472 588.485 83.68C591.813 81.888 594.469 79.52 596.453 76.576C598.437 73.568 599.877 70.176 600.773 66.4C601.669 62.624 602.117 58.784 602.117 54.88ZM622.95 20.704C624.358 20.704 626.15 20.736 628.326 20.8C630.502 20.864 632.262 20.896 633.606 20.896C634.95 20.896 636.71 20.864 638.886 20.8C641.126 20.736 642.95 20.704 644.358 20.704C644.422 21.28 644.422 21.888 644.358 22.528C642.246 22.72 640.71 22.944 639.75 23.2C638.79 23.392 638.182 23.84 637.926 24.544C637.67 25.248 637.542 26.432 637.542 28.096V62.56C637.542 70.048 639.174 75.744 642.438 79.648C645.766 83.488 650.598 85.408 656.934 85.408C663.59 85.408 668.582 83.296 671.91 79.072C675.302 74.848 676.998 68.672 676.998 60.544V29.728C676.998 27.552 676.87 26.016 676.614 25.12C676.358 24.224 675.718 23.648 674.694 23.392C673.67 23.072 671.974 22.816 669.606 22.624C669.542 21.984 669.542 21.376 669.606 20.8C670.886 20.8 672.422 20.832 674.214 20.896C676.07 20.896 677.542 20.896 678.63 20.896C679.782 20.896 681.222 20.896 682.95 20.896C684.678 20.832 686.182 20.8 687.462 20.8C687.526 21.376 687.526 21.984 687.462 22.624C685.286 22.816 683.718 23.04 682.758 23.296C681.798 23.552 681.19 24.064 680.934 24.832C680.678 25.6 680.55 26.944 680.55 28.864V61.984C680.55 70.24 678.47 76.832 674.31 81.76C670.15 86.688 663.718 89.152 655.014 89.152C647.398 89.152 641.286 87.072 636.678 82.912C632.134 78.752 629.862 72.672 629.862 64.672V28.96C629.862 27.04 629.734 25.664 629.478 24.832C629.286 24 628.71 23.456 627.75 23.2C626.79 22.944 625.19 22.72 622.95 22.528C622.886 21.952 622.886 21.344 622.95 20.704ZM719.884 56.704L717.484 56.512V79.744C717.484 81.664 717.612 83.072 717.868 83.968C718.124 84.8 718.732 85.344 719.692 85.6C720.716 85.792 722.38 85.984 724.684 86.176C724.748 86.816 724.748 87.456 724.684 88.096C723.788 88.096 722.604 88.064 721.132 88C719.724 88 718.316 88 716.908 88C715.564 87.936 714.444 87.904 713.548 87.904C712.716 87.904 711.596 87.936 710.188 88C708.844 88 707.5 88 706.156 88C704.812 88.064 703.692 88.096 702.796 88.096C702.732 87.456 702.732 86.816 702.796 86.176C705.036 85.984 706.636 85.792 707.596 85.6C708.62 85.408 709.228 84.96 709.42 84.256C709.676 83.488 709.804 82.272 709.804 80.608V28.96C709.804 27.04 709.676 25.664 709.42 24.832C709.164 24 708.524 23.456 707.5 23.2C706.54 22.944 704.972 22.752 702.796 22.624C702.732 21.984 702.732 21.344 702.796 20.704C703.692 20.704 704.812 20.736 706.156 20.8C707.564 20.8 708.94 20.832 710.284 20.896C711.692 20.896 712.812 20.896 713.644 20.896C714.476 20.896 715.724 20.896 717.388 20.896C719.052 20.832 720.716 20.8 722.38 20.8C724.044 20.736 725.26 20.704 726.028 20.704C729.676 20.704 733.068 21.248 736.204 22.336C739.34 23.424 741.868 25.184 743.788 27.616C745.772 29.984 746.764 33.184 746.764 37.216C746.764 41.952 745.356 45.792 742.54 48.736C739.724 51.68 735.948 53.888 731.212 55.36V55.648C732.108 56.096 732.94 56.672 733.708 57.376C734.54 58.016 735.468 58.976 736.492 60.256C737.26 61.216 738.348 62.752 739.756 64.864C741.228 66.976 742.764 69.28 744.364 71.776C746.028 74.208 747.532 76.48 748.876 78.592C750.348 80.896 751.596 82.56 752.62 83.584C753.644 84.544 754.764 85.184 755.98 85.504C757.196 85.76 758.828 85.984 760.876 86.176C760.94 86.816 760.94 87.456 760.876 88.096C759.98 88.096 758.828 88.064 757.42 88C756.012 88 754.636 88 753.292 88C752.012 87.936 751.02 87.904 750.316 87.904C749.548 87.904 748.812 87.936 748.108 88C747.404 88 746.7 88 745.996 88C745.292 86.784 744.268 85.12 742.924 83.008C741.58 80.832 740.076 78.464 738.412 75.904C736.748 73.344 735.084 70.848 733.42 68.416C731.82 65.92 730.38 63.808 729.1 62.08C728.012 60.544 727.052 59.424 726.22 58.72C725.388 58.016 724.492 57.536 723.532 57.28C722.636 57.024 721.42 56.832 719.884 56.704ZM717.484 53.632C718.316 53.76 719.052 53.856 719.692 53.92C720.332 53.92 720.94 53.92 721.516 53.92C726.636 53.92 730.732 52.672 733.804 50.176C736.94 47.616 738.508 43.648 738.508 38.272C738.508 33.472 737.196 29.824 734.572 27.328C731.948 24.768 728.076 23.488 722.956 23.488C721.356 23.488 719.532 23.584 717.484 23.776V53.632ZM46.843 148.704C48.251 148.704 50.043 148.736 52.219 148.8C54.395 148.864 56.155 148.896 57.499 148.896C58.843 148.896 60.603 148.864 62.779 148.8C65.019 148.736 66.843 148.704 68.251 148.704C68.315 149.28 68.315 149.888 68.251 150.528C66.139 150.72 64.603 150.944 63.643 151.2C62.683 151.392 62.075 151.84 61.819 152.544C61.563 153.248 61.435 154.432 61.435 156.096V190.56C61.435 198.048 63.067 203.744 66.331 207.648C69.659 211.488 74.491 213.408 80.827 213.408C87.483 213.408 92.475 211.296 95.803 207.072C99.195 202.848 100.891 196.672 100.891 188.544V157.728C100.891 155.552 100.763 154.016 100.507 153.12C100.251 152.224 99.611 151.648 98.587 151.392C97.563 151.072 95.867 150.816 93.499 150.624C93.435 149.984 93.435 149.376 93.499 148.8C94.779 148.8 96.315 148.832 98.107 148.896C99.963 148.896 101.435 148.896 102.523 148.896C103.675 148.896 105.115 148.896 106.843 148.896C108.571 148.832 110.075 148.8 111.355 148.8C111.419 149.376 111.419 149.984 111.355 150.624C109.179 150.816 107.611 151.04 106.651 151.296C105.691 151.552 105.083 152.064 104.827 152.832C104.571 153.6 104.443 154.944 104.443 156.864V189.984C104.443 198.24 102.363 204.832 98.203 209.76C94.043 214.688 87.611 217.152 78.907 217.152C71.291 217.152 65.179 215.072 60.571 210.912C56.027 206.752 53.755 200.672 53.755 192.672V156.96C53.755 155.04 53.627 153.664 53.371 152.832C53.179 152 52.603 151.456 51.643 151.2C50.683 150.944 49.083 150.72 46.843 150.528C46.779 149.952 46.779 149.344 46.843 148.704ZM181.89 216.48L136.29 157.44V206.016C136.29 207.808 136.322 209.184 136.386 210.144C136.514 211.04 136.802 211.744 137.25 212.256C137.762 212.704 138.498 213.12 139.458 213.504C140.418 213.824 141.794 214.048 143.586 214.176C143.65 214.816 143.65 215.456 143.586 216.096C142.178 216.096 140.61 216.064 138.882 216C137.218 215.936 135.81 215.904 134.658 215.904C133.506 215.904 132.066 215.936 130.338 216C128.674 216.064 127.17 216.096 125.826 216.096C125.762 215.456 125.762 214.816 125.826 214.176C128.066 213.92 129.666 213.632 130.626 213.312C131.586 212.992 132.162 212.384 132.354 211.488C132.61 210.528 132.738 208.992 132.738 206.88V159.168C132.738 156.672 132.61 154.88 132.354 153.792C132.098 152.64 131.426 151.872 130.338 151.488C129.314 151.104 127.618 150.784 125.25 150.528C125.186 149.952 125.186 149.344 125.25 148.704C126.722 148.704 128.258 148.736 129.858 148.8C131.522 148.864 133.154 148.896 134.754 148.896C134.946 148.896 135.554 148.896 136.578 148.896C137.666 148.896 138.626 148.864 139.458 148.8L182.274 204.384V158.88C182.274 157.152 182.242 155.808 182.178 154.848C182.114 153.824 181.826 153.088 181.314 152.64C180.354 151.552 177.986 150.88 174.21 150.624C174.146 149.984 174.146 149.376 174.21 148.8C175.554 148.8 177.218 148.832 179.202 148.896C181.186 148.896 182.754 148.896 183.906 148.896C185.058 148.896 186.466 148.896 188.13 148.896C189.858 148.832 191.426 148.8 192.834 148.8C192.898 149.376 192.898 149.984 192.834 150.624C190.594 150.88 188.962 151.2 187.938 151.584C186.978 151.904 186.37 152.544 186.114 153.504C185.922 154.4 185.826 155.904 185.826 158.016V216.096C185.378 216.224 184.738 216.32 183.906 216.384C183.138 216.448 182.466 216.48 181.89 216.48ZM223.233 156.192V207.744C223.233 209.664 223.329 211.072 223.521 211.968C223.713 212.8 224.289 213.344 225.249 213.6C226.209 213.792 227.841 213.984 230.145 214.176C230.209 214.816 230.209 215.456 230.145 216.096C228.737 216.096 226.913 216.064 224.673 216C222.433 215.936 220.673 215.904 219.393 215.904C217.985 215.904 216.193 215.936 214.017 216C211.841 216.064 210.017 216.096 208.545 216.096C208.481 215.456 208.481 214.816 208.545 214.176C210.785 213.984 212.385 213.792 213.345 213.6C214.369 213.408 214.977 212.96 215.169 212.256C215.425 211.488 215.553 210.272 215.553 208.608V157.056C215.553 155.136 215.425 153.76 215.169 152.928C214.913 152.096 214.305 151.552 213.345 151.296C212.385 150.976 210.785 150.752 208.545 150.624C208.481 149.984 208.481 149.344 208.545 148.704C209.505 148.704 210.657 148.736 212.001 148.8C213.409 148.8 214.785 148.832 216.129 148.896C217.473 148.896 218.593 148.896 219.489 148.896C220.385 148.896 221.473 148.896 222.753 148.896C224.097 148.832 225.441 148.8 226.785 148.8C228.129 148.736 229.249 148.704 230.145 148.704C230.209 149.344 230.209 149.984 230.145 150.624C227.905 150.816 226.305 151.008 225.345 151.2C224.385 151.392 223.777 151.84 223.521 152.544C223.329 153.248 223.233 154.464 223.233 156.192ZM278.928 217.152C272.72 216.896 267.44 215.776 263.088 213.792C258.736 211.808 255.216 209.216 252.528 206.016C249.84 202.816 247.888 199.264 246.672 195.36C245.456 191.392 244.848 187.328 244.848 183.168C244.848 176.32 246.288 170.24 249.168 164.928C252.112 159.552 256.208 155.36 261.456 152.352C266.768 149.28 273.008 147.744 280.176 147.744C287.216 147.744 293.264 149.216 298.32 152.16C303.44 155.04 307.376 159.04 310.128 164.16C312.88 169.28 314.256 175.168 314.256 181.824C314.256 187.136 313.36 192.032 311.568 196.512C309.84 200.992 307.248 204.864 303.792 208.128C300.336 211.328 296.112 213.728 291.12 215.328V215.616C295.6 219.776 299.344 222.944 302.352 225.12C305.424 227.36 308.112 228.896 310.416 229.728C312.784 230.56 315.152 230.976 317.52 230.976C320.464 230.976 323.44 230.528 326.448 229.632C329.456 228.8 332.432 227.424 335.376 225.504C335.824 225.888 336.144 226.368 336.336 226.944C332.752 230.08 328.912 232.416 324.816 233.952C320.784 235.552 317.072 236.352 313.68 236.352C310.288 236.352 307.12 235.68 304.176 234.336C301.296 233.056 298.256 231.104 295.056 228.48C291.92 225.92 288.24 222.752 284.016 218.976C283.056 218.08 282.32 217.568 281.808 217.44C281.36 217.312 280.4 217.216 278.928 217.152ZM305.712 182.784C305.712 178.752 305.232 174.848 304.272 171.072C303.376 167.232 301.904 163.776 299.856 160.704C297.808 157.632 295.12 155.2 291.792 153.408C288.464 151.552 284.432 150.624 279.696 150.624C274.96 150.624 270.928 151.552 267.6 153.408C264.272 155.2 261.552 157.632 259.44 160.704C257.392 163.712 255.888 167.104 254.928 170.88C253.968 174.592 253.488 178.368 253.488 182.208C253.488 186.048 253.968 189.888 254.928 193.728C255.888 197.504 257.392 200.96 259.44 204.096C261.552 207.168 264.304 209.664 267.696 211.584C271.088 213.44 275.216 214.368 280.08 214.368C284.816 214.368 288.816 213.472 292.08 211.68C295.344 209.888 297.968 207.488 299.952 204.48C302 201.408 303.472 198.016 304.368 194.304C305.264 190.528 305.712 186.688 305.712 182.784ZM326.544 148.704C327.952 148.704 329.744 148.736 331.92 148.8C334.096 148.864 335.856 148.896 337.2 148.896C338.544 148.896 340.304 148.864 342.48 148.8C344.72 148.736 346.544 148.704 347.952 148.704C348.016 149.28 348.016 149.888 347.952 150.528C345.84 150.72 344.304 150.944 343.344 151.2C342.384 151.392 341.776 151.84 341.52 152.544C341.264 153.248 341.136 154.432 341.136 156.096V190.56C341.136 198.048 342.768 203.744 346.032 207.648C349.36 211.488 354.192 213.408 360.528 213.408C367.184 213.408 372.176 211.296 375.504 207.072C378.896 202.848 380.592 196.672 380.592 188.544V157.728C380.592 155.552 380.464 154.016 380.208 153.12C379.952 152.224 379.312 151.648 378.288 151.392C377.264 151.072 375.568 150.816 373.2 150.624C373.136 149.984 373.136 149.376 373.2 148.8C374.48 148.8 376.016 148.832 377.808 148.896C379.664 148.896 381.136 148.896 382.224 148.896C383.376 148.896 384.816 148.896 386.544 148.896C388.272 148.832 389.776 148.8 391.056 148.8C391.12 149.376 391.12 149.984 391.056 150.624C388.88 150.816 387.312 151.04 386.352 151.296C385.392 151.552 384.784 152.064 384.528 152.832C384.272 153.6 384.144 154.944 384.144 156.864V189.984C384.144 198.24 382.064 204.832 377.904 209.76C373.744 214.688 367.312 217.152 358.608 217.152C350.992 217.152 344.88 215.072 340.272 210.912C335.728 206.752 333.456 200.672 333.456 192.672V156.96C333.456 155.04 333.328 153.664 333.072 152.832C332.88 152 332.304 151.456 331.344 151.2C330.384 150.944 328.784 150.72 326.544 150.528C326.48 149.952 326.48 149.344 326.544 148.704ZM406.583 216.096C406.519 215.456 406.519 214.816 406.583 214.176C408.759 213.984 410.327 213.792 411.287 213.6C412.247 213.344 412.823 212.864 413.015 212.16C413.271 211.456 413.399 210.272 413.399 208.608V157.056C413.399 155.136 413.271 153.76 413.015 152.928C412.759 152.096 412.151 151.552 411.191 151.296C410.295 150.976 408.759 150.752 406.583 150.624C406.519 149.984 406.519 149.344 406.583 148.704C408.183 148.704 409.527 148.736 410.615 148.8C411.767 148.8 413.079 148.832 414.551 148.896C416.087 148.896 418.167 148.896 420.791 148.896C423.543 148.896 426.327 148.896 429.143 148.896C431.959 148.832 434.583 148.8 437.015 148.8C439.447 148.8 441.463 148.8 443.063 148.8C444.663 148.736 445.591 148.704 445.847 148.704C446.231 152.352 446.775 156.224 447.479 160.32C446.775 160.384 446.135 160.384 445.559 160.32C445.047 158.592 444.503 157.216 443.927 156.192C443.351 155.104 442.743 154.272 442.103 153.696C441.271 152.928 440.215 152.416 438.935 152.16C437.719 151.904 436.183 151.776 434.327 151.776H421.079V179.808H431.159C433.399 179.808 435.063 179.68 436.151 179.424C437.239 179.168 438.007 178.528 438.455 177.504C438.903 176.416 439.287 174.688 439.607 172.32C440.311 172.256 440.983 172.256 441.623 172.32C441.623 172.768 441.591 173.888 441.527 175.68C441.463 177.408 441.431 179.36 441.431 181.536C441.431 183.52 441.463 185.408 441.527 187.2C441.591 188.928 441.623 190.08 441.623 190.656C441.047 190.72 440.375 190.72 439.607 190.656C439.351 188.096 438.999 186.304 438.551 185.28C438.103 184.192 437.367 183.52 436.343 183.264C435.319 183.008 433.783 182.88 431.735 182.88H421.079V213.024H433.847C436.151 213.024 438.103 212.896 439.703 212.64C441.367 212.32 442.647 211.712 443.543 210.816C444.183 210.176 444.855 209.152 445.559 207.744C446.327 206.336 447.095 204.672 447.863 202.752C448.439 202.688 449.047 202.688 449.687 202.752C449.175 205.312 448.727 207.776 448.343 210.144C448.023 212.512 447.767 214.464 447.575 216C445.463 216 443.031 216 440.279 216C437.527 216 434.743 216 431.927 216C429.111 215.936 426.551 215.904 424.247 215.904C421.943 215.904 420.183 215.904 418.967 215.904C416.791 215.904 414.999 215.936 413.591 216C412.247 216 411.063 216 410.039 216C409.015 216.064 407.863 216.096 406.583 216.096ZM493.866 215.712C493.802 213.664 493.738 211.424 493.674 208.992C493.674 206.496 493.578 203.904 493.386 201.216C493.706 201.152 493.994 201.12 494.25 201.12C494.57 201.12 494.89 201.12 495.21 201.12C495.914 205.472 497.706 208.8 500.586 211.104C503.53 213.344 506.89 214.464 510.666 214.464C514.634 214.464 517.674 213.312 519.786 211.008C521.898 208.704 522.954 205.728 522.954 202.08C522.954 199.2 522.346 196.768 521.13 194.784C519.914 192.736 518.218 190.912 516.042 189.312C513.93 187.648 511.53 185.984 508.842 184.32C506.346 182.72 503.914 181.056 501.546 179.328C499.242 177.536 497.354 175.488 495.882 173.184C494.41 170.88 493.674 168.096 493.674 164.832C493.674 161.44 494.506 158.464 496.17 155.904C497.898 153.344 500.234 151.36 503.178 149.952C506.186 148.48 509.578 147.744 513.354 147.744C514.506 147.744 515.53 147.808 516.426 147.936C517.386 148.064 518.474 148.192 519.69 148.32C520.906 148.448 521.898 148.544 522.666 148.608C523.434 148.672 524.138 148.704 524.778 148.704C524.906 148.704 525.13 148.704 525.45 148.704C525.77 148.704 526.154 148.672 526.602 148.608L527.37 162.24C526.986 162.304 526.634 162.368 526.314 162.432C526.058 162.432 525.77 162.432 525.45 162.432C525.13 160.384 524.554 158.56 523.722 156.96C522.954 155.36 522.058 154.112 521.034 153.216C519.946 152.256 518.602 151.552 517.002 151.104C515.402 150.656 513.834 150.432 512.298 150.432C508.97 150.432 506.186 151.424 503.946 153.408C501.77 155.328 500.682 158.08 500.682 161.664C500.682 164.288 501.29 166.56 502.506 168.48C503.722 170.336 505.354 172.064 507.402 173.664C509.45 175.2 511.754 176.8 514.314 178.464C516.81 180.064 519.242 181.824 521.61 183.744C523.978 185.6 525.898 187.776 527.37 190.272C528.906 192.704 529.674 195.68 529.674 199.2C529.674 202.336 528.97 205.28 527.562 208.032C526.154 210.72 524.01 212.928 521.13 214.656C518.25 216.32 514.602 217.152 510.186 217.152C509.226 217.152 508.138 217.088 506.922 216.96C505.77 216.832 504.042 216.64 501.738 216.384C499.818 216.128 498.282 215.968 497.13 215.904C496.042 215.776 494.954 215.712 493.866 215.712ZM545.929 216.096C545.865 215.456 545.865 214.816 545.929 214.176C548.105 213.984 549.673 213.792 550.633 213.6C551.593 213.344 552.169 212.864 552.361 212.16C552.617 211.456 552.745 210.272 552.745 208.608V157.056C552.745 155.136 552.617 153.76 552.361 152.928C552.105 152.096 551.497 151.552 550.537 151.296C549.641 150.976 548.105 150.752 545.929 150.624C545.865 149.984 545.865 149.344 545.929 148.704C547.529 148.704 548.873 148.736 549.961 148.8C551.113 148.8 552.425 148.832 553.897 148.896C555.433 148.896 557.513 148.896 560.137 148.896C562.889 148.896 565.673 148.896 568.489 148.896C571.305 148.832 573.929 148.8 576.361 148.8C578.793 148.8 580.809 148.8 582.409 148.8C584.009 148.736 584.937 148.704 585.193 148.704C585.577 152.352 586.121 156.224 586.825 160.32C586.121 160.384 585.481 160.384 584.905 160.32C584.393 158.592 583.849 157.216 583.273 156.192C582.697 155.104 582.089 154.272 581.449 153.696C580.617 152.928 579.561 152.416 578.281 152.16C577.065 151.904 575.529 151.776 573.673 151.776H560.425V179.808H570.505C572.745 179.808 574.409 179.68 575.497 179.424C576.585 179.168 577.353 178.528 577.801 177.504C578.249 176.416 578.633 174.688 578.953 172.32C579.657 172.256 580.329 172.256 580.969 172.32C580.969 172.768 580.937 173.888 580.873 175.68C580.809 177.408 580.777 179.36 580.777 181.536C580.777 183.52 580.809 185.408 580.873 187.2C580.937 188.928 580.969 190.08 580.969 190.656C580.393 190.72 579.721 190.72 578.953 190.656C578.697 188.096 578.345 186.304 577.897 185.28C577.449 184.192 576.713 183.52 575.689 183.264C574.665 183.008 573.129 182.88 571.081 182.88H560.425V213.024H573.193C575.497 213.024 577.449 212.896 579.049 212.64C580.713 212.32 581.993 211.712 582.889 210.816C583.529 210.176 584.201 209.152 584.905 207.744C585.673 206.336 586.441 204.672 587.209 202.752C587.785 202.688 588.393 202.688 589.033 202.752C588.521 205.312 588.073 207.776 587.689 210.144C587.369 212.512 587.113 214.464 586.921 216C584.809 216 582.377 216 579.625 216C576.873 216 574.089 216 571.273 216C568.457 215.936 565.897 215.904 563.593 215.904C561.289 215.904 559.529 215.904 558.313 215.904C556.137 215.904 554.345 215.936 552.937 216C551.593 216 550.409 216 549.385 216C548.361 216.064 547.209 216.096 545.929 216.096ZM604.815 216.096C604.751 215.456 604.751 214.816 604.815 214.176C606.991 213.984 608.559 213.792 609.519 213.6C610.479 213.344 611.055 212.864 611.247 212.16C611.503 211.456 611.631 210.272 611.631 208.608V157.056C611.631 155.136 611.503 153.76 611.247 152.928C610.991 152.096 610.383 151.552 609.423 151.296C608.527 150.976 606.991 150.752 604.815 150.624C604.751 149.984 604.751 149.344 604.815 148.704C606.287 148.704 608.111 148.736 610.287 148.8C612.463 148.864 614.191 148.896 615.471 148.896C616.303 148.896 617.391 148.896 618.735 148.896C620.079 148.832 621.423 148.8 622.767 148.8C624.175 148.736 625.327 148.704 626.223 148.704C626.287 149.344 626.287 149.984 626.223 150.624C623.983 150.816 622.383 151.008 621.423 151.2C620.463 151.392 619.855 151.84 619.599 152.544C619.407 153.248 619.311 154.464 619.311 156.192V207.36C619.311 208.96 619.311 210.24 619.311 211.2C619.311 212.096 619.343 212.704 619.407 213.024H633.423C635.663 213.024 637.487 212.864 638.895 212.544C640.303 212.224 641.423 211.584 642.255 210.624C642.959 209.856 643.695 208.736 644.463 207.264C645.295 205.728 646.031 203.872 646.671 201.696C647.247 201.632 647.823 201.632 648.399 201.696C647.887 204.576 647.407 207.296 646.959 209.856C646.575 212.416 646.255 214.464 645.999 216C642.991 216 639.695 216 636.111 216C632.591 215.936 629.039 215.904 625.455 215.904C621.935 215.904 618.671 215.904 615.663 215.904C614.767 215.904 613.647 215.936 612.303 216C610.959 216 609.615 216 608.271 216C606.927 216.064 605.775 216.096 604.815 216.096ZM659.389 216.096C659.325 215.456 659.325 214.816 659.389 214.176C661.565 213.984 663.133 213.792 664.093 213.6C665.053 213.344 665.629 212.864 665.821 212.16C666.077 211.456 666.205 210.272 666.205 208.608V157.056C666.205 155.136 666.077 153.76 665.821 152.928C665.565 152.096 664.957 151.552 663.997 151.296C663.101 150.976 661.565 150.752 659.389 150.624C659.325 149.984 659.325 149.344 659.389 148.704C660.861 148.704 662.685 148.736 664.861 148.8C667.037 148.864 668.765 148.896 670.045 148.896C670.877 148.896 671.965 148.896 673.309 148.896C674.653 148.832 675.997 148.8 677.341 148.8C678.749 148.736 679.901 148.704 680.797 148.704C680.861 149.344 680.861 149.984 680.797 150.624C678.557 150.816 676.957 151.008 675.997 151.2C675.037 151.392 674.429 151.84 674.173 152.544C673.981 153.248 673.885 154.464 673.885 156.192V207.36C673.885 208.96 673.885 210.24 673.885 211.2C673.885 212.096 673.917 212.704 673.981 213.024H687.997C690.237 213.024 692.061 212.864 693.469 212.544C694.877 212.224 695.997 211.584 696.829 210.624C697.533 209.856 698.269 208.736 699.037 207.264C699.869 205.728 700.605 203.872 701.245 201.696C701.821 201.632 702.397 201.632 702.973 201.696C702.461 204.576 701.981 207.296 701.533 209.856C701.149 212.416 700.829 214.464 700.573 216C697.565 216 694.269 216 690.685 216C687.165 215.936 683.613 215.904 680.029 215.904C676.509 215.904 673.245 215.904 670.237 215.904C669.341 215.904 668.221 215.936 666.877 216C665.533 216 664.189 216 662.845 216C661.501 216.064 660.349 216.096 659.389 216.096ZM728.459 156.192V207.744C728.459 209.664 728.555 211.072 728.747 211.968C728.939 212.8 729.515 213.344 730.475 213.6C731.435 213.792 733.067 213.984 735.371 214.176C735.435 214.816 735.435 215.456 735.371 216.096C733.963 216.096 732.139 216.064 729.899 216C727.659 215.936 725.899 215.904 724.619 215.904C723.211 215.904 721.419 215.936 719.243 216C717.067 216.064 715.243 216.096 713.771 216.096C713.707 215.456 713.707 214.816 713.771 214.176C716.011 213.984 717.611 213.792 718.571 213.6C719.595 213.408 720.203 212.96 720.395 212.256C720.651 211.488 720.779 210.272 720.779 208.608V157.056C720.779 155.136 720.651 153.76 720.395 152.928C720.139 152.096 719.531 151.552 718.571 151.296C717.611 150.976 716.011 150.752 713.771 150.624C713.707 149.984 713.707 149.344 713.771 148.704C714.731 148.704 715.883 148.736 717.227 148.8C718.635 148.8 720.011 148.832 721.355 148.896C722.699 148.896 723.819 148.896 724.715 148.896C725.611 148.896 726.699 148.896 727.979 148.896C729.323 148.832 730.667 148.8 732.011 148.8C733.355 148.736 734.475 148.704 735.371 148.704C735.435 149.344 735.435 149.984 735.371 150.624C733.131 150.816 731.531 151.008 730.571 151.2C729.611 151.392 729.003 151.84 728.747 152.544C728.555 153.248 728.459 154.464 728.459 156.192ZM808.826 216.48L763.226 157.44V206.016C763.226 207.808 763.258 209.184 763.322 210.144C763.45 211.04 763.738 211.744 764.186 212.256C764.698 212.704 765.434 213.12 766.394 213.504C767.354 213.824 768.73 214.048 770.522 214.176C770.586 214.816 770.586 215.456 770.522 216.096C769.114 216.096 767.546 216.064 765.818 216C764.154 215.936 762.746 215.904 761.594 215.904C760.442 215.904 759.002 215.936 757.274 216C755.61 216.064 754.106 216.096 752.762 216.096C752.698 215.456 752.698 214.816 752.762 214.176C755.002 213.92 756.602 213.632 757.562 213.312C758.522 212.992 759.098 212.384 759.29 211.488C759.546 210.528 759.674 208.992 759.674 206.88V159.168C759.674 156.672 759.546 154.88 759.29 153.792C759.034 152.64 758.362 151.872 757.274 151.488C756.25 151.104 754.554 150.784 752.186 150.528C752.122 149.952 752.122 149.344 752.186 148.704C753.658 148.704 755.194 148.736 756.794 148.8C758.458 148.864 760.09 148.896 761.69 148.896C761.882 148.896 762.49 148.896 763.514 148.896C764.602 148.896 765.562 148.864 766.394 148.8L809.21 204.384V158.88C809.21 157.152 809.178 155.808 809.114 154.848C809.05 153.824 808.762 153.088 808.25 152.64C807.29 151.552 804.922 150.88 801.146 150.624C801.082 149.984 801.082 149.376 801.146 148.8C802.49 148.8 804.154 148.832 806.138 148.896C808.122 148.896 809.69 148.896 810.842 148.896C811.994 148.896 813.402 148.896 815.066 148.896C816.794 148.832 818.362 148.8 819.77 148.8C819.834 149.376 819.834 149.984 819.77 150.624C817.53 150.88 815.898 151.2 814.874 151.584C813.914 151.904 813.306 152.544 813.05 153.504C812.858 154.4 812.762 155.904 812.762 158.016V216.096C812.314 216.224 811.674 216.32 810.842 216.384C810.074 216.448 809.402 216.48 808.826 216.48ZM869.561 150.528C864.121 150.528 859.577 151.36 855.929 153.024C852.281 154.688 849.369 156.992 847.193 159.936C845.017 162.816 843.449 166.144 842.489 169.92C841.529 173.632 841.049 177.536 841.049 181.632C841.049 188.096 842.105 193.792 844.217 198.72C846.393 203.584 849.657 207.392 854.009 210.144C858.425 212.832 863.929 214.176 870.521 214.176C872.633 214.176 874.969 214.048 877.529 213.792C880.089 213.472 882.553 213.024 884.921 212.448V192.768C884.921 190.848 884.793 189.472 884.537 188.64C884.281 187.808 883.609 187.264 882.521 187.008C881.433 186.752 879.673 186.528 877.241 186.336C877.177 185.696 877.177 185.088 877.241 184.512C878.201 184.512 879.385 184.544 880.793 184.608C882.201 184.608 883.609 184.64 885.017 184.704C886.425 184.704 887.609 184.704 888.569 184.704C889.529 184.704 890.649 184.704 891.929 184.704C893.273 184.64 894.521 184.608 895.673 184.608C896.889 184.544 897.785 184.512 898.361 184.512C898.425 185.088 898.425 185.696 898.361 186.336C896.441 186.528 895.065 186.752 894.233 187.008C893.401 187.264 892.889 187.744 892.697 188.448C892.505 189.152 892.409 190.336 892.409 192V204.96C892.409 207.136 892.441 209.024 892.505 210.624C892.633 212.16 892.729 213.248 892.793 213.888C889.657 214.912 886.073 215.712 882.041 216.288C878.009 216.864 874.201 217.152 870.617 217.152C862.873 217.152 856.121 215.84 850.361 213.216C844.665 210.528 840.249 206.656 837.113 201.6C833.977 196.48 832.409 190.272 832.409 182.976C832.409 175.872 833.881 169.696 836.825 164.448C839.833 159.136 844.121 155.04 849.689 152.16C855.257 149.216 861.913 147.744 869.657 147.744C871.833 147.744 874.041 147.872 876.281 148.128C878.585 148.32 881.209 148.672 884.153 149.184C885.241 149.376 886.297 149.568 887.321 149.76C888.345 149.952 889.433 150.048 890.585 150.048C890.777 150.048 890.969 150.048 891.161 150.048C891.417 150.048 891.737 150.016 892.121 149.952C892.185 152 892.281 154.496 892.409 157.44C892.601 160.384 892.761 163.04 892.889 165.408C892.505 165.472 892.185 165.536 891.929 165.6C891.673 165.6 891.385 165.6 891.065 165.6C890.361 160.864 888.249 157.184 884.729 154.56C881.273 151.872 876.217 150.528 869.561 150.528ZM962.931 186.048C961.843 186.048 960.851 186.016 959.955 185.952C959.059 185.824 957.971 185.6 956.691 185.28V207.744C956.691 209.28 956.723 210.432 956.787 211.2C956.915 211.904 957.203 212.48 957.651 212.928C958.163 213.376 958.867 213.664 959.763 213.792C960.659 213.92 962.195 214.048 964.371 214.176C964.435 214.816 964.435 215.456 964.371 216.096C963.347 216.096 962.099 216.064 960.627 216C959.155 216 957.715 216 956.307 216C954.899 215.936 953.747 215.904 952.851 215.904C951.443 215.904 949.651 215.936 947.475 216C945.299 216.064 943.475 216.096 942.003 216.096C941.939 215.456 941.939 214.816 942.003 214.176C944.243 213.984 945.843 213.792 946.803 213.6C947.827 213.408 948.435 212.96 948.627 212.256C948.883 211.488 949.011 210.272 949.011 208.608V157.056C949.011 155.136 948.883 153.76 948.627 152.928C948.371 152.096 947.763 151.552 946.803 151.296C945.843 150.976 944.243 150.752 942.003 150.624C941.939 149.984 941.939 149.344 942.003 148.704C942.963 148.704 944.115 148.736 945.459 148.8C946.867 148.8 948.243 148.832 949.587 148.896C950.931 148.896 952.019 148.896 952.851 148.896C953.747 148.896 955.027 148.896 956.691 148.896C958.355 148.832 960.019 148.8 961.683 148.8C963.411 148.736 964.659 148.704 965.427 148.704C969.139 148.704 972.563 149.248 975.699 150.336C978.899 151.424 981.459 153.248 983.379 155.808C985.363 158.304 986.355 161.76 986.355 166.176C986.355 170.592 985.331 174.272 983.283 177.216C981.235 180.16 978.451 182.368 974.931 183.84C971.411 185.312 967.411 186.048 962.931 186.048ZM956.691 182.592C957.715 182.848 958.643 183.008 959.475 183.072C960.371 183.136 961.107 183.168 961.683 183.168C966.995 183.168 971.027 181.696 973.779 178.752C976.595 175.808 978.003 171.808 978.003 166.752C978.003 162.016 976.691 158.304 974.067 155.616C971.443 152.864 967.475 151.488 962.163 151.488C961.459 151.488 960.595 151.52 959.571 151.584C958.547 151.584 957.587 151.648 956.691 151.776V182.592ZM1065.81 181.92C1065.81 188.832 1064.37 194.944 1061.49 200.256C1058.61 205.504 1054.54 209.632 1049.3 212.64C1044.05 215.648 1037.84 217.152 1030.67 217.152C1023.57 217.152 1017.46 215.68 1012.34 212.736C1007.22 209.792 1003.28 205.76 1000.53 200.64C997.776 195.456 996.4 189.568 996.4 182.976C996.4 176.192 997.84 170.144 1000.72 164.832C1003.6 159.52 1007.66 155.36 1012.91 152.352C1018.22 149.28 1024.46 147.744 1031.63 147.744C1038.67 147.744 1044.72 149.216 1049.78 152.16C1054.9 155.04 1058.83 159.072 1061.58 164.256C1064.4 169.376 1065.81 175.264 1065.81 181.92ZM1057.26 182.88C1057.26 178.848 1056.78 174.912 1055.82 171.072C1054.86 167.232 1053.36 163.776 1051.31 160.704C1049.26 157.632 1046.58 155.2 1043.25 153.408C1039.92 151.552 1035.89 150.624 1031.15 150.624C1026.42 150.624 1022.38 151.552 1019.06 153.408C1015.73 155.2 1013.04 157.632 1010.99 160.704C1008.94 163.776 1007.44 167.2 1006.48 170.976C1005.52 174.688 1005.04 178.464 1005.04 182.304C1005.04 186.144 1005.52 189.952 1006.48 193.728C1007.44 197.504 1008.98 200.96 1011.09 204.096C1013.2 207.232 1015.95 209.728 1019.34 211.584C1022.74 213.44 1026.83 214.368 1031.63 214.368C1036.37 214.368 1040.37 213.472 1043.63 211.68C1046.96 209.888 1049.62 207.52 1051.6 204.576C1053.58 201.568 1055.02 198.176 1055.92 194.4C1056.82 190.624 1057.26 186.784 1057.26 182.88ZM1095.09 156.192V207.744C1095.09 209.664 1095.18 211.072 1095.38 211.968C1095.57 212.8 1096.14 213.344 1097.1 213.6C1098.06 213.792 1099.7 213.984 1102 214.176C1102.06 214.816 1102.06 215.456 1102 216.096C1100.59 216.096 1098.77 216.064 1096.53 216C1094.29 215.936 1092.53 215.904 1091.25 215.904C1089.84 215.904 1088.05 215.936 1085.87 216C1083.7 216.064 1081.87 216.096 1080.4 216.096C1080.34 215.456 1080.34 214.816 1080.4 214.176C1082.64 213.984 1084.24 213.792 1085.2 213.6C1086.22 213.408 1086.83 212.96 1087.02 212.256C1087.28 211.488 1087.41 210.272 1087.41 208.608V157.056C1087.41 155.136 1087.28 153.76 1087.02 152.928C1086.77 152.096 1086.16 151.552 1085.2 151.296C1084.24 150.976 1082.64 150.752 1080.4 150.624C1080.34 149.984 1080.34 149.344 1080.4 148.704C1081.36 148.704 1082.51 148.736 1083.86 148.8C1085.26 148.8 1086.64 148.832 1087.98 148.896C1089.33 148.896 1090.45 148.896 1091.34 148.896C1092.24 148.896 1093.33 148.896 1094.61 148.896C1095.95 148.832 1097.3 148.8 1098.64 148.8C1099.98 148.736 1101.1 148.704 1102 148.704C1102.06 149.344 1102.06 149.984 1102 150.624C1099.76 150.816 1098.16 151.008 1097.2 151.2C1096.24 151.392 1095.63 151.84 1095.38 152.544C1095.18 153.248 1095.09 154.464 1095.09 156.192ZM1175.46 216.48L1129.86 157.44V206.016C1129.86 207.808 1129.89 209.184 1129.95 210.144C1130.08 211.04 1130.37 211.744 1130.82 212.256C1131.33 212.704 1132.06 213.12 1133.02 213.504C1133.98 213.824 1135.36 214.048 1137.15 214.176C1137.22 214.816 1137.22 215.456 1137.15 216.096C1135.74 216.096 1134.18 216.064 1132.45 216C1130.78 215.936 1129.38 215.904 1128.22 215.904C1127.07 215.904 1125.63 215.936 1123.9 216C1122.24 216.064 1120.74 216.096 1119.39 216.096C1119.33 215.456 1119.33 214.816 1119.39 214.176C1121.63 213.92 1123.23 213.632 1124.19 213.312C1125.15 212.992 1125.73 212.384 1125.92 211.488C1126.18 210.528 1126.3 208.992 1126.3 206.88V159.168C1126.3 156.672 1126.18 154.88 1125.92 153.792C1125.66 152.64 1124.99 151.872 1123.9 151.488C1122.88 151.104 1121.18 150.784 1118.82 150.528C1118.75 149.952 1118.75 149.344 1118.82 148.704C1120.29 148.704 1121.82 148.736 1123.42 148.8C1125.09 148.864 1126.72 148.896 1128.32 148.896C1128.51 148.896 1129.12 148.896 1130.14 148.896C1131.23 148.896 1132.19 148.864 1133.02 148.8L1175.84 204.384V158.88C1175.84 157.152 1175.81 155.808 1175.74 154.848C1175.68 153.824 1175.39 153.088 1174.88 152.64C1173.92 151.552 1171.55 150.88 1167.78 150.624C1167.71 149.984 1167.71 149.376 1167.78 148.8C1169.12 148.8 1170.78 148.832 1172.77 148.896C1174.75 148.896 1176.32 148.896 1177.47 148.896C1178.62 148.896 1180.03 148.896 1181.7 148.896C1183.42 148.832 1184.99 148.8 1186.4 148.8C1186.46 149.376 1186.46 149.984 1186.4 150.624C1184.16 150.88 1182.53 151.2 1181.5 151.584C1180.54 151.904 1179.94 152.544 1179.68 153.504C1179.49 154.4 1179.39 155.904 1179.39 158.016V216.096C1178.94 216.224 1178.3 216.32 1177.47 216.384C1176.7 216.448 1176.03 216.48 1175.46 216.48ZM1213.05 216.096C1212.99 215.456 1212.99 214.816 1213.05 214.176C1215.36 213.984 1216.99 213.792 1217.95 213.6C1218.97 213.408 1219.58 212.96 1219.77 212.256C1220.03 211.488 1220.16 210.272 1220.16 208.608V151.68H1207.97C1205.41 151.68 1203.49 151.968 1202.21 152.544C1200.93 153.12 1199.93 154.144 1199.23 155.616C1198.53 157.024 1197.79 159.104 1197.02 161.856C1196.45 161.92 1195.84 161.92 1195.2 161.856C1195.52 159.616 1195.81 157.344 1196.06 155.04C1196.32 152.672 1196.54 150.528 1196.73 148.608C1199.74 148.736 1203.36 148.832 1207.58 148.896C1211.81 148.896 1217.31 148.896 1224.09 148.896C1231.01 148.896 1236.54 148.896 1240.7 148.896C1244.86 148.832 1248.45 148.736 1251.45 148.608C1251.58 150.464 1251.77 152.576 1252.03 154.944C1252.29 157.312 1252.54 159.616 1252.8 161.856C1252.09 161.92 1251.45 161.92 1250.88 161.856C1250.05 159.104 1249.28 156.992 1248.57 155.52C1247.87 154.048 1246.88 153.056 1245.6 152.544C1244.38 151.968 1242.49 151.68 1239.93 151.68H1227.84V207.744C1227.84 209.664 1227.93 211.072 1228.13 211.968C1228.38 212.8 1228.99 213.344 1229.95 213.6C1230.97 213.792 1232.64 213.984 1234.94 214.176C1235.01 214.816 1235.01 215.456 1234.94 216.096C1233.98 216.096 1232.8 216.064 1231.39 216C1230.05 216 1228.7 216 1227.36 216C1226.01 215.936 1224.89 215.904 1224 215.904C1222.65 215.904 1220.86 215.936 1218.62 216C1216.38 216.064 1214.53 216.096 1213.05 216.096Z" fill="#1E1B1E"/>
</svg>
