<svg width="1023" height="95" viewBox="0 0 1023 95" fill="none" xmlns="http://www.w3.org/2000/svg">
<path d="M12.625 2V93H0.5625V2H12.625ZM50.75 42.9375V52.8125H10V42.9375H50.75ZM56.9375 2V11.875H10V2H56.9375ZM71.9525 2H102.077C108.911 2 114.682 3.04167 119.39 5.125C124.14 7.20833 127.744 10.2917 130.202 14.375C132.702 18.4167 133.952 23.3958 133.952 29.3125C133.952 33.4792 133.098 37.2917 131.39 40.75C129.723 44.1667 127.307 47.0833 124.14 49.5C121.015 51.875 117.265 53.6458 112.89 54.8125L109.515 56.125H81.2025L81.0775 46.3125H102.452C106.786 46.3125 110.39 45.5625 113.265 44.0625C116.14 42.5208 118.307 40.4583 119.765 37.875C121.223 35.2917 121.952 32.4375 121.952 29.3125C121.952 25.8125 121.265 22.75 119.89 20.125C118.515 17.5 116.348 15.4792 113.39 14.0625C110.473 12.6042 106.702 11.875 102.077 11.875H84.015V93H71.9525V2ZM125.14 93L103.015 51.75L115.577 51.6875L138.015 92.25V93H125.14ZM221.53 44.625V50.375C221.53 57.2083 220.676 63.3333 218.967 68.75C217.259 74.1667 214.801 78.7708 211.592 82.5625C208.384 86.3542 204.53 89.25 200.03 91.25C195.572 93.25 190.572 94.25 185.03 94.25C179.655 94.25 174.717 93.25 170.217 91.25C165.759 89.25 161.884 86.3542 158.592 82.5625C155.342 78.7708 152.822 74.1667 151.03 68.75C149.238 63.3333 148.342 57.2083 148.342 50.375V44.625C148.342 37.7917 149.217 31.6875 150.967 26.3125C152.759 20.8958 155.28 16.2917 158.53 12.5C161.78 8.66667 165.634 5.75 170.092 3.75C174.592 1.75 179.53 0.75 184.905 0.75C190.447 0.75 195.447 1.75 199.905 3.75C204.405 5.75 208.259 8.66667 211.467 12.5C214.717 16.2917 217.197 20.8958 218.905 26.3125C220.655 31.6875 221.53 37.7917 221.53 44.625ZM209.592 50.375V44.5C209.592 39.0833 209.03 34.2917 207.905 30.125C206.822 25.9583 205.217 22.4583 203.092 19.625C200.967 16.7917 198.363 14.6458 195.28 13.1875C192.238 11.7292 188.78 11 184.905 11C181.155 11 177.759 11.7292 174.717 13.1875C171.717 14.6458 169.134 16.7917 166.967 19.625C164.842 22.4583 163.197 25.9583 162.03 30.125C160.863 34.2917 160.28 39.0833 160.28 44.5V50.375C160.28 55.8333 160.863 60.6667 162.03 64.875C163.197 69.0417 164.863 72.5625 167.03 75.4375C169.238 78.2708 171.842 80.4167 174.842 81.875C177.884 83.3333 181.28 84.0625 185.03 84.0625C188.947 84.0625 192.426 83.3333 195.467 81.875C198.509 80.4167 201.072 78.2708 203.155 75.4375C205.28 72.5625 206.884 69.0417 207.967 64.875C209.051 60.6667 209.592 55.8333 209.592 50.375ZM244.045 2H255.732L285.545 76.1875L315.295 2H327.045L290.045 93H280.92L244.045 2ZM240.232 2H250.545L252.232 57.5V93H240.232V2ZM320.482 2H330.795V93H318.795V57.5L320.482 2ZM397.95 2V93H385.888V2H397.95ZM490.527 2V93H478.402L432.59 22.8125V93H420.527V2H432.59L478.59 72.375V2H490.527ZM567.48 64.0625H579.48C578.855 69.8125 577.209 74.9583 574.543 79.5C571.876 84.0417 568.105 87.6458 563.23 90.3125C558.355 92.9375 552.272 94.25 544.98 94.25C539.647 94.25 534.793 93.25 530.418 91.25C526.084 89.25 522.355 86.4167 519.23 82.75C516.105 79.0417 513.688 74.6042 511.98 69.4375C510.313 64.2292 509.48 58.4375 509.48 52.0625V43C509.48 36.625 510.313 30.8542 511.98 25.6875C513.688 20.4792 516.126 16.0208 519.293 12.3125C522.501 8.60417 526.355 5.75 530.855 3.75C535.355 1.75 540.418 0.75 546.043 0.75C552.918 0.75 558.73 2.04167 563.48 4.625C568.23 7.20833 571.918 10.7917 574.543 15.375C577.209 19.9167 578.855 25.1875 579.48 31.1875H567.48C566.897 26.9375 565.813 23.2917 564.23 20.25C562.647 17.1667 560.397 14.7917 557.48 13.125C554.563 11.4583 550.751 10.625 546.043 10.625C542.001 10.625 538.438 11.3958 535.355 12.9375C532.313 14.4792 529.751 16.6667 527.668 19.5C525.626 22.3333 524.084 25.7292 523.043 29.6875C522.001 33.6458 521.48 38.0417 521.48 42.875V52.0625C521.48 56.5208 521.938 60.7083 522.855 64.625C523.813 68.5417 525.251 71.9792 527.168 74.9375C529.084 77.8958 531.522 80.2292 534.48 81.9375C537.438 83.6042 540.938 84.4375 544.98 84.4375C550.105 84.4375 554.188 83.625 557.23 82C560.272 80.375 562.563 78.0417 564.105 75C565.688 71.9583 566.813 68.3125 567.48 64.0625ZM654.37 83.1875V93H606.182V83.1875H654.37ZM608.62 2V93H596.557V2H608.62ZM647.995 41.125V50.9375H606.182V41.125H647.995ZM653.745 2V11.875H606.182V2H653.745ZM703.51 57.3125H679.198V47.5H703.51C708.218 47.5 712.031 46.75 714.948 45.25C717.864 43.75 719.989 41.6667 721.323 39C722.698 36.3333 723.385 33.2917 723.385 29.875C723.385 26.75 722.698 23.8125 721.323 21.0625C719.989 18.3125 717.864 16.1042 714.948 14.4375C712.031 12.7292 708.218 11.875 703.51 11.875H682.01V93H669.948V2H703.51C710.385 2 716.198 3.1875 720.948 5.5625C725.698 7.9375 729.302 11.2292 731.76 15.4375C734.218 19.6042 735.448 24.375 735.448 29.75C735.448 35.5833 734.218 40.5625 731.76 44.6875C729.302 48.8125 725.698 51.9583 720.948 54.125C716.198 56.25 710.385 57.3125 703.51 57.3125ZM784.963 2V93H773.088V2H784.963ZM814.213 2V11.875H743.9V2H814.213ZM841.29 2V93H829.227V2H841.29ZM933.93 44.625V50.375C933.93 57.2083 933.076 63.3333 931.367 68.75C929.659 74.1667 927.201 78.7708 923.992 82.5625C920.784 86.3542 916.93 89.25 912.43 91.25C907.972 93.25 902.972 94.25 897.43 94.25C892.055 94.25 887.117 93.25 882.617 91.25C878.159 89.25 874.284 86.3542 870.992 82.5625C867.742 78.7708 865.222 74.1667 863.43 68.75C861.638 63.3333 860.742 57.2083 860.742 50.375V44.625C860.742 37.7917 861.617 31.6875 863.367 26.3125C865.159 20.8958 867.68 16.2917 870.93 12.5C874.18 8.66667 878.034 5.75 882.492 3.75C886.992 1.75 891.93 0.75 897.305 0.75C902.847 0.75 907.847 1.75 912.305 3.75C916.805 5.75 920.659 8.66667 923.867 12.5C927.117 16.2917 929.597 20.8958 931.305 26.3125C933.055 31.6875 933.93 37.7917 933.93 44.625ZM921.992 50.375V44.5C921.992 39.0833 921.43 34.2917 920.305 30.125C919.222 25.9583 917.617 22.4583 915.492 19.625C913.367 16.7917 910.763 14.6458 907.68 13.1875C904.638 11.7292 901.18 11 897.305 11C893.555 11 890.159 11.7292 887.117 13.1875C884.117 14.6458 881.534 16.7917 879.367 19.625C877.242 22.4583 875.597 25.9583 874.43 30.125C873.263 34.2917 872.68 39.0833 872.68 44.5V50.375C872.68 55.8333 873.263 60.6667 874.43 64.875C875.597 69.0417 877.263 72.5625 879.43 75.4375C881.638 78.2708 884.242 80.4167 887.242 81.875C890.284 83.3333 893.68 84.0625 897.43 84.0625C901.347 84.0625 904.826 83.3333 907.867 81.875C910.909 80.4167 913.472 78.2708 915.555 75.4375C917.68 72.5625 919.284 69.0417 920.367 64.875C921.451 60.6667 921.992 55.8333 921.992 50.375ZM1022.63 2V93H1010.51L964.695 22.8125V93H952.633V2H964.695L1010.7 72.375V2H1022.63Z" fill="#FBFEFC"/>
</svg>
