<svg width="708" height="95" viewBox="0 0 708 95" fill="none" xmlns="http://www.w3.org/2000/svg">
<path d="M41.9275 2V93H30.0525V2H41.9275ZM71.1775 2V11.875H0.86499V2H71.1775ZM153.63 44.625V50.375C153.63 57.2083 152.776 63.3333 151.068 68.75C149.359 74.1667 146.901 78.7708 143.693 82.5625C140.484 86.3542 136.63 89.25 132.13 91.25C127.672 93.25 122.672 94.25 117.13 94.25C111.755 94.25 106.818 93.25 102.318 91.25C97.8592 89.25 93.9842 86.3542 90.6925 82.5625C87.4425 78.7708 84.9217 74.1667 83.13 68.75C81.3383 63.3333 80.4425 57.2083 80.4425 50.375V44.625C80.4425 37.7917 81.3175 31.6875 83.0675 26.3125C84.8592 20.8958 87.38 16.2917 90.63 12.5C93.88 8.66667 97.7342 5.75 102.193 3.75C106.693 1.75 111.63 0.75 117.005 0.75C122.547 0.75 127.547 1.75 132.005 3.75C136.505 5.75 140.359 8.66667 143.568 12.5C146.818 16.2917 149.297 20.8958 151.005 26.3125C152.755 31.6875 153.63 37.7917 153.63 44.625ZM141.693 50.375V44.5C141.693 39.0833 141.13 34.2917 140.005 30.125C138.922 25.9583 137.318 22.4583 135.193 19.625C133.068 16.7917 130.463 14.6458 127.38 13.1875C124.338 11.7292 120.88 11 117.005 11C113.255 11 109.859 11.7292 106.818 13.1875C103.818 14.6458 101.234 16.7917 99.0675 19.625C96.9425 22.4583 95.2967 25.9583 94.13 30.125C92.9633 34.2917 92.38 39.0833 92.38 44.5V50.375C92.38 55.8333 92.9633 60.6667 94.13 64.875C95.2967 69.0417 96.9633 72.5625 99.13 75.4375C101.338 78.2708 103.943 80.4167 106.943 81.875C109.984 83.3333 113.38 84.0625 117.13 84.0625C121.047 84.0625 124.526 83.3333 127.568 81.875C130.609 80.4167 133.172 78.2708 135.255 75.4375C137.38 72.5625 138.984 69.0417 140.068 64.875C141.151 60.6667 141.693 55.8333 141.693 50.375ZM271.472 93H243.312C245.275 92.4027 247.109 91.464 248.816 90.184C250.523 88.8187 251.632 87.1973 252.144 85.32V63.304C252.144 58.6107 251.035 54.5573 248.816 51.144C246.683 47.7307 243.269 46.024 238.576 46.024C235.419 46.024 232.176 47.176 228.848 49.48C225.52 51.784 222.704 54.8987 220.4 58.824C218.181 62.7493 217.072 67.144 217.072 72.008V85.32C217.669 87.1973 218.779 88.8187 220.4 90.184C222.107 91.464 223.941 92.4027 225.904 93H198C199.963 92.4027 201.797 91.464 203.504 90.184C205.211 88.8187 206.32 87.1973 206.832 85.32V11.592C206.32 9.71466 205.211 8.13599 203.504 6.856C201.797 5.49066 199.963 4.552 198 4.03999H231.92C241.563 4.03999 248.944 5.23466 254.064 7.62399C259.269 10.0133 261.872 14.6213 261.872 21.448C261.872 25.1173 260.933 28.1467 259.056 30.536C257.179 32.9253 254.747 35.016 251.76 36.808C248.859 38.6 245.659 40.3067 242.16 41.928L236.4 44.872C237.083 44.7867 237.808 44.744 238.576 44.744C246.597 44.744 252.613 46.8347 256.624 51.016C260.635 55.112 262.64 60.232 262.64 66.376V85.32C263.152 87.1973 264.261 88.8187 265.968 90.184C267.675 91.464 269.509 92.4027 271.472 93ZM217.072 63.176C218.693 58.4827 221.125 54.6 224.368 51.528C227.611 48.456 231.109 45.7253 234.864 43.336C237.765 41.4587 240.453 39.4533 242.928 37.32C245.488 35.1867 247.536 32.7547 249.072 30.024C250.693 27.208 251.504 23.7947 251.504 19.784C251.504 15.432 250.608 12.232 248.816 10.184C247.109 8.136 244.763 6.81333 241.776 6.216C238.875 5.61866 235.589 5.31999 231.92 5.31999H217.072V63.176ZM315.516 93C310.055 93 305.02 92.1467 300.412 90.44C295.889 88.7333 292.263 86.0453 289.532 82.376C286.887 78.6213 285.564 73.8 285.564 67.912C285.564 61.5973 287.228 56.392 290.556 52.296C293.884 48.1147 298.151 45.2987 303.356 43.848C298.407 43.08 294.268 41.032 290.94 37.704C287.612 34.376 285.948 30.4933 285.948 26.056V11.592C285.436 9.71466 284.327 8.13599 282.62 6.856C280.913 5.49066 279.079 4.552 277.116 4.03999H339.324L341.884 19.272C338.129 15.3467 333.607 12.0613 328.316 9.41599C323.111 6.68533 317.735 5.31999 312.188 5.31999H296.188V26.056C296.188 31.0907 297.212 35.144 299.26 38.216C301.393 41.2027 304.508 42.696 308.604 42.696H315.132C323.836 42.696 328.401 39.8373 328.828 34.12L339.836 52.936C336.508 49.7787 332.924 47.5173 329.084 46.152C325.329 44.7013 322.257 43.976 319.868 43.976H311.164C309.457 43.976 307.367 44.7013 304.892 46.152C302.417 47.6027 300.241 49.992 298.364 53.32C296.572 56.5627 295.676 60.9147 295.676 66.376C295.676 74.1413 297.767 80.1573 301.948 84.424C306.215 88.6053 311.591 90.696 318.076 90.696C324.305 90.696 329.937 88.776 334.972 84.936C340.092 81.096 342.652 76.232 342.652 70.344H343.804C343.804 76.5733 341.031 81.9067 335.484 86.344C330.023 90.7813 323.367 93 315.516 93ZM428.581 93H400.421C402.042 92.488 403.408 91.6773 404.517 90.568C405.712 89.3733 406.309 87.9653 406.309 86.344L406.181 85.32L394.405 56.008L383.653 83.272C382.458 86.344 380.538 88.7333 377.893 90.44C375.248 92.0613 372.432 92.872 369.445 92.872C367.568 92.872 365.69 92.5307 363.813 91.848C357.754 89.1173 354.554 84.3813 354.213 77.64C354.213 76.2747 354.341 75.1227 354.597 74.184L354.981 72.648L377.765 15.048C376.826 12.488 375.376 10.184 373.413 8.13599C371.536 6.00266 369.616 4.63733 367.653 4.03999H384.805L416.677 83.016C417.957 85.9173 419.706 88.1787 421.925 89.8C424.144 91.336 426.362 92.4027 428.581 93ZM369.445 91.72C372.176 91.72 374.736 90.952 377.125 89.416C379.514 87.88 381.306 85.704 382.501 82.888L393.637 54.6H368.165V53.32H393.253L378.533 16.712L356.645 72.008C355.877 74.056 355.493 75.976 355.493 77.768C355.493 80.072 356.261 82.504 357.797 85.064C359.333 87.624 361.509 89.5013 364.325 90.696C366.117 91.3787 367.824 91.72 369.445 91.72ZM493.821 93H434.045C436.008 92.4027 437.842 91.464 439.549 90.184C441.256 88.8187 442.365 87.1973 442.877 85.32V11.592C442.365 9.71466 441.256 8.13599 439.549 6.856C437.842 5.49066 436.008 4.552 434.045 4.03999H461.949C459.986 4.552 458.152 5.49066 456.445 6.856C454.824 8.13599 453.714 9.71466 453.117 11.592V91.72H464.125C469.586 91.72 475.389 89.9707 481.533 86.472C487.677 82.888 492.754 79.1333 496.765 75.208L493.821 93ZM532.964 93H505.06C507.023 92.4027 508.857 91.464 510.564 90.184C512.271 88.8187 513.38 87.1973 513.892 85.32V11.592C513.38 9.71466 512.271 8.13599 510.564 6.856C508.857 5.49066 507.023 4.552 505.06 4.03999H532.964C531.001 4.552 529.167 5.49066 527.46 6.856C525.839 8.13599 524.729 9.71466 524.132 11.592V85.32C524.729 87.1973 525.839 88.8187 527.46 90.184C529.167 91.464 531.001 92.4027 532.964 93ZM592.013 93H564.109C566.072 92.488 567.864 91.592 569.485 90.312C571.192 88.9467 572.344 87.3253 572.941 85.448L573.069 5.70399H568.461C563 5.70399 558.05 7.06933 553.613 9.8C549.176 12.4453 545.08 15.7307 541.325 19.656L543.885 4.424H612.493L615.053 19.656C611.298 15.7307 607.202 12.4453 602.765 9.8C598.328 7.06933 593.378 5.70399 587.917 5.70399H583.309L583.181 85.448C583.693 87.3253 584.802 88.9467 586.509 90.312C588.216 91.592 590.05 92.488 592.013 93ZM679.276 93H651.244C653.292 92.4027 655.127 91.464 656.748 90.184C658.455 88.8187 659.607 87.1973 660.204 85.32V50.888L637.42 13.128C635.799 11.1653 633.623 9.37333 630.892 7.752C628.247 6.13066 625.729 5.02133 623.34 4.424H653.036C649.879 5.36266 648.3 7.19733 648.3 9.92799C648.3 10.5253 648.428 11.208 648.684 11.976L670.316 48.456L692.204 11.976C692.46 11.208 692.588 10.5253 692.588 9.92799C692.588 8.56266 692.119 7.41066 691.18 6.47199C690.241 5.53333 689.132 4.85066 687.852 4.424H707.18C704.791 5.02133 702.273 6.13066 699.628 7.752C697.068 9.37333 694.892 11.1653 693.1 13.128L670.316 51.016V85.32C670.913 87.1973 672.023 88.8187 673.644 90.184C675.351 91.464 677.228 92.4027 679.276 93Z" fill="#FBFEFC"/>
</svg>
