<svg width="1075" height="198" viewBox="0 0 1075 198" fill="none" xmlns="http://www.w3.org/2000/svg">
<path d="M472.759 69.056C466.423 69.056 460.727 67.776 455.671 65.216C450.679 62.656 446.711 58.848 443.767 53.792C440.887 48.672 439.447 42.336 439.447 34.784C439.447 27.488 440.887 21.312 443.767 16.256C446.711 11.136 450.679 7.232 455.671 4.544C460.727 1.856 466.423 0.511999 472.759 0.511999C479.159 0.511999 484.855 1.856 489.847 4.544C494.903 7.232 498.871 11.136 501.751 16.256C504.695 21.312 506.167 27.488 506.167 34.784C506.167 42.336 504.695 48.672 501.751 53.792C498.871 58.848 494.903 62.656 489.847 65.216C484.855 67.776 479.159 69.056 472.759 69.056ZM475.063 67.904C478.519 67.904 482.039 67.104 485.623 65.504C491.447 62.304 494.359 57.632 494.359 51.488C494.359 44.384 487.159 38.976 472.759 35.264C466.871 33.792 461.719 31.712 457.303 29.024C452.695 26.08 450.391 22.432 450.391 18.08C450.391 14.88 451.223 11.968 452.887 9.344C448.855 14.4 446.839 20.544 446.839 27.776C446.839 32.064 447.479 36.544 448.759 41.216C450.103 46.336 451.991 50.912 454.423 54.944C456.919 58.912 459.895 62.08 463.351 64.448C466.807 66.752 470.711 67.904 475.063 67.904ZM492.823 60.128C496.791 55.52 498.775 49.408 498.775 41.792C498.775 37.44 498.135 32.96 496.855 28.352C494.807 20.672 491.575 14.368 487.159 9.44C482.743 4.512 477.303 1.92 470.839 1.664C468.727 1.664 466.519 1.984 464.215 2.62399C462.487 3.008 460.919 3.584 459.511 4.352C454.071 7.552 451.351 12.128 451.351 18.08C451.351 22.112 453.463 25.472 457.687 28.16C461.975 30.848 467.063 32.928 472.951 34.4C478.839 35.808 483.959 37.856 488.311 40.544C492.983 43.488 495.319 47.136 495.319 51.488C495.319 54.624 494.487 57.504 492.823 60.128ZM542.846 69.248C538.302 69.248 534.238 68.288 530.654 66.368C527.07 64.448 524.222 61.376 522.11 57.152C520.062 52.864 519.038 47.2 519.038 40.16V7.328C518.654 5.856 517.822 4.64 516.542 3.68C515.262 2.656 513.886 1.952 512.414 1.568H533.342C531.87 1.952 530.494 2.656 529.214 3.68C527.998 4.64 527.166 5.856 526.718 7.328V40.16C526.718 49.568 528.446 56.48 531.902 60.896C535.358 65.312 539.806 67.52 545.246 67.52C548.766 67.52 551.998 66.592 554.942 64.736C557.95 62.88 560.35 59.936 562.142 55.904C563.998 51.872 564.926 46.624 564.926 40.16V7.328C564.478 5.856 563.614 4.64 562.334 3.68C561.118 2.656 559.742 1.952 558.206 1.568H572.51C571.038 1.952 569.662 2.656 568.382 3.68C567.102 4.64 566.238 5.856 565.79 7.328V40.16C565.79 46.88 564.83 52.384 562.91 56.672C560.99 60.96 558.302 64.128 554.846 66.176C551.39 68.224 547.39 69.248 542.846 69.248ZM636.476 68H615.068C616.54 67.616 617.82 66.944 618.908 65.984C619.996 64.96 620.636 63.712 620.828 62.24L619.004 51.776C618.364 47.296 617.02 43.52 614.972 40.448C612.988 37.376 609.852 35.744 605.564 35.552H602.684C598.78 35.552 595.612 36.064 593.18 37.088V62.24C593.628 63.712 594.46 64.96 595.676 65.984C596.956 66.944 598.332 67.616 599.804 68H578.876C580.348 67.616 581.724 66.944 583.004 65.984C584.284 64.96 585.116 63.712 585.5 62.24V7.04C585.116 5.568 584.284 4.352 583.004 3.392C581.724 2.368 580.348 1.664 578.876 1.27999H603.644C611.324 1.27999 617.372 2.656 621.788 5.408C626.268 8.096 628.508 12.448 628.508 18.464C628.508 23.712 627.068 27.584 624.188 30.08C621.372 32.512 617.372 34.144 612.188 34.976V35.168C621.276 36.704 626.492 42.24 627.836 51.776L629.564 62.144C630.972 65.088 633.276 67.04 636.476 68ZM593.18 36.128C595.74 35.168 598.78 34.688 602.3 34.688H603.644C608.764 34.688 612.732 33.312 615.548 30.56C618.364 27.744 619.772 23.712 619.772 18.464C619.772 13.152 618.332 9.12 615.452 6.368C612.572 3.616 608.636 2.23999 603.644 2.23999H593.18V36.128ZM31.3325 189.248C26.7885 189.248 22.7245 188.288 19.1405 186.368C15.5565 184.448 12.7085 181.376 10.5965 177.152C8.5485 172.864 7.5245 167.2 7.5245 160.16V127.328C7.1405 125.856 6.3085 124.64 5.0285 123.68C3.7485 122.656 2.3725 121.952 0.900503 121.568H21.8285C20.3565 121.952 18.9805 122.656 17.7005 123.68C16.4845 124.64 15.6525 125.856 15.2045 127.328V160.16C15.2045 169.568 16.9325 176.48 20.3885 180.896C23.8445 185.312 28.2925 187.52 33.7325 187.52C37.2525 187.52 40.4845 186.592 43.4285 184.736C46.4365 182.88 48.8365 179.936 50.6285 175.904C52.4845 171.872 53.4125 166.624 53.4125 160.16V127.328C52.9645 125.856 52.1005 124.64 50.8205 123.68C49.6045 122.656 48.2285 121.952 46.6925 121.568H60.9965C59.5245 121.952 58.1485 122.656 56.8685 123.68C55.5885 124.64 54.7245 125.856 54.2765 127.328V160.16C54.2765 166.88 53.3165 172.384 51.3965 176.672C49.4765 180.96 46.7885 184.128 43.3325 186.176C39.8765 188.224 35.8765 189.248 31.3325 189.248ZM121.699 188H118.051L74.9465 127.712V181.184C75.3945 182.656 76.2265 184.064 77.4425 185.408C78.7225 186.688 80.1305 187.552 81.6665 188H67.3625C68.8345 187.552 70.2105 186.688 71.4905 185.408C72.7705 184.064 73.6025 182.656 73.9865 181.184V126.272C73.3465 125.12 72.5145 124.096 71.4905 123.2C70.5305 122.24 69.4745 121.6 68.3225 121.28H79.9385L120.739 178.4V128.192C120.291 126.72 119.427 125.312 118.147 123.968C116.931 122.624 115.555 121.728 114.019 121.28H128.323C126.851 121.728 125.475 122.624 124.195 123.968C122.979 125.312 122.147 126.72 121.699 128.192V188ZM156.865 188H135.937C137.409 187.616 138.785 186.944 140.065 185.984C141.345 184.96 142.177 183.712 142.561 182.24V127.04C142.177 125.568 141.345 124.352 140.065 123.392C138.785 122.368 137.409 121.664 135.937 121.28H156.865C155.393 121.664 154.017 122.368 152.737 123.392C151.521 124.352 150.689 125.568 150.241 127.04V182.24C150.689 183.712 151.521 184.96 152.737 185.984C154.017 186.944 155.393 187.616 156.865 188ZM233.836 197.888H214.06C215.532 197.184 216.268 195.936 216.268 194.144C216.268 192.48 215.5 190.816 213.964 189.152L210.7 186.752C206.668 188.224 202.188 188.96 197.26 188.96C190.924 188.96 185.228 187.68 180.172 185.12C175.18 182.496 171.212 178.656 168.268 173.6C165.388 168.48 163.948 162.176 163.948 154.688C163.948 147.392 165.388 141.184 168.268 136.064C171.212 130.944 175.18 127.04 180.172 124.352C185.228 121.664 190.924 120.32 197.26 120.32C203.66 120.32 209.356 121.664 214.348 124.352C219.404 127.04 223.372 130.944 226.252 136.064C229.196 141.184 230.668 147.392 230.668 154.688C230.668 162.816 228.94 169.536 225.484 174.848C222.092 180.16 217.516 183.968 211.756 186.272C213.1 187.36 214.444 188.384 215.788 189.344C217.836 190.752 220.524 192.32 223.852 194.048C227.18 195.776 230.508 197.056 233.836 197.888ZM199.564 187.712C201.612 187.712 203.724 187.424 205.9 186.848C207.18 186.528 208.332 186.144 209.356 185.696L201.58 179.36C200.556 178.336 199.372 177.824 198.028 177.824C194.764 177.824 193.068 179.456 192.94 182.72C192.94 185.024 194.092 186.624 196.396 187.52C197.484 187.648 198.54 187.712 199.564 187.712ZM193.708 186.944C192.556 185.728 191.98 184.32 191.98 182.72C191.98 181.12 192.524 179.744 193.612 178.592C194.764 177.44 196.236 176.864 198.028 176.864C199.692 176.864 201.068 177.44 202.156 178.592C204.908 180.896 207.66 183.104 210.412 185.216C214.828 182.976 218.06 179.808 220.108 175.712C222.22 171.552 223.276 166.848 223.276 161.6C223.276 157.248 222.636 152.768 221.356 148.16C219.308 140.48 216.076 134.176 211.66 129.248C207.244 124.32 201.804 121.76 195.34 121.568C193.228 121.568 191.02 121.856 188.716 122.432C182.7 124.16 178.284 127.296 175.468 131.84C172.716 136.384 171.34 141.664 171.34 147.68C171.34 151.968 171.98 156.448 173.26 161.12C174.988 167.584 177.58 173.12 181.036 177.728C184.492 182.336 188.716 185.408 193.708 186.944ZM264.159 189.248C259.615 189.248 255.551 188.288 251.967 186.368C248.383 184.448 245.535 181.376 243.423 177.152C241.375 172.864 240.351 167.2 240.351 160.16V127.328C239.967 125.856 239.135 124.64 237.855 123.68C236.575 122.656 235.199 121.952 233.727 121.568H254.655C253.183 121.952 251.807 122.656 250.527 123.68C249.311 124.64 248.479 125.856 248.031 127.328V160.16C248.031 169.568 249.759 176.48 253.215 180.896C256.671 185.312 261.119 187.52 266.559 187.52C270.079 187.52 273.311 186.592 276.255 184.736C279.263 182.88 281.663 179.936 283.455 175.904C285.311 171.872 286.239 166.624 286.239 160.16V127.328C285.791 125.856 284.927 124.64 283.647 123.68C282.431 122.656 281.055 121.952 279.519 121.568H293.823C292.351 121.952 290.975 122.656 289.695 123.68C288.415 124.64 287.551 125.856 287.103 127.328V160.16C287.103 166.88 286.143 172.384 284.223 176.672C282.303 180.96 279.615 184.128 276.159 186.176C272.703 188.224 268.703 189.248 264.159 189.248ZM347.229 188H300.189C301.661 187.616 303.037 186.944 304.317 185.984C305.597 184.96 306.429 183.712 306.813 182.24V127.04C306.429 125.568 305.597 124.352 304.317 123.392C303.037 122.368 301.661 121.664 300.189 121.28H346.845L348.765 132.704C345.949 129.76 342.557 127.296 338.589 125.312C334.685 123.264 330.653 122.24 326.493 122.24H314.493V154.208H329.853C331.517 153.824 333.405 153.28 335.517 152.576C337.629 151.808 339.517 150.976 341.181 150.08C342.845 149.184 343.837 148.32 344.157 147.488V161.792C343.837 160.96 342.845 160.096 341.181 159.2C339.517 158.304 337.629 157.504 335.517 156.8C333.405 156.096 331.517 155.552 329.853 155.168H314.493V187.04H326.109C330.205 187.04 334.333 185.92 338.493 183.68C342.653 181.376 346.205 178.752 349.149 175.808L347.229 188ZM406.758 189.152C403.11 189.152 399.366 188.896 395.526 188.384C391.75 187.872 388.646 187.296 386.214 186.656V171.968C388.582 176.448 391.59 180.288 395.238 183.488C398.886 186.624 402.726 188.192 406.758 188.192C411.302 188.192 414.854 186.976 417.414 184.544C419.974 182.048 421.254 178.752 421.254 174.656C421.254 171.456 420.486 168.8 418.95 166.688C417.478 164.512 415.558 162.624 413.19 161.024C410.822 159.424 407.878 157.664 404.358 155.744L402.63 154.688C399.302 152.832 396.454 151.072 394.086 149.408C391.782 147.744 389.99 145.92 388.71 143.936C387.43 141.888 386.79 139.296 386.79 136.16C386.79 131.424 388.518 127.648 391.974 124.832C395.494 121.952 399.974 120.512 405.414 120.512C409.19 120.512 412.934 120.768 416.646 121.28C420.422 121.728 423.526 122.304 425.958 123.008V137.696C423.59 133.152 420.614 129.312 417.03 126.176C413.446 123.04 409.574 121.472 405.414 121.472C401.702 121.472 398.63 122.432 396.198 124.352C393.766 126.272 392.55 128.832 392.55 132.032C392.55 134.4 393.318 136.512 394.854 138.368C396.902 141.12 400.902 144.224 406.854 147.68L412.23 150.944C415.238 152.672 417.926 154.4 420.294 156.128C422.726 157.856 424.614 159.872 425.958 162.176C427.366 164.48 428.07 167.424 428.07 171.008C428.07 176.256 426.214 180.608 422.502 184.064C418.854 187.456 413.606 189.152 406.758 189.152ZM481.231 188H434.191C435.663 187.616 437.039 186.944 438.319 185.984C439.599 184.96 440.431 183.712 440.815 182.24V127.04C440.431 125.568 439.599 124.352 438.319 123.392C437.039 122.368 435.663 121.664 434.191 121.28H480.847L482.767 132.704C479.951 129.76 476.559 127.296 472.591 125.312C468.687 123.264 464.655 122.24 460.495 122.24H448.495V154.208H463.855C465.519 153.824 467.407 153.28 469.519 152.576C471.631 151.808 473.519 150.976 475.183 150.08C476.847 149.184 477.839 148.32 478.159 147.488V161.792C477.839 160.96 476.847 160.096 475.183 159.2C473.519 158.304 471.631 157.504 469.519 156.8C467.407 156.096 465.519 155.552 463.855 155.168H448.495V187.04H460.111C464.207 187.04 468.335 185.92 472.495 183.68C476.655 181.376 480.207 178.752 483.151 175.808L481.231 188ZM534.253 188H489.421C490.893 187.616 492.269 186.944 493.549 185.984C494.829 184.96 495.661 183.712 496.045 182.24V127.04C495.661 125.568 494.829 124.352 493.549 123.392C492.269 122.368 490.893 121.664 489.421 121.28H510.349C508.877 121.664 507.501 122.368 506.221 123.392C505.005 124.352 504.173 125.568 503.725 127.04V187.04H511.981C516.077 187.04 520.429 185.728 525.037 183.104C529.645 180.48 533.453 177.664 536.461 174.656L534.253 188ZM587.514 188H542.682C544.154 187.616 545.53 186.944 546.81 185.984C548.09 184.96 548.922 183.712 549.306 182.24V127.04C548.922 125.568 548.09 124.352 546.81 123.392C545.53 122.368 544.154 121.664 542.682 121.28H563.61C562.138 121.664 560.762 122.368 559.482 123.392C558.266 124.352 557.434 125.568 556.986 127.04V187.04H565.242C569.338 187.04 573.69 185.728 578.298 183.104C582.906 180.48 586.714 177.664 589.722 174.656L587.514 188ZM618.216 188H597.288C598.76 187.616 600.136 186.944 601.416 185.984C602.696 184.96 603.528 183.712 603.912 182.24V127.04C603.528 125.568 602.696 124.352 601.416 123.392C600.136 122.368 598.76 121.664 597.288 121.28H618.216C616.744 121.664 615.368 122.368 614.088 123.392C612.872 124.352 612.04 125.568 611.592 127.04V182.24C612.04 183.712 612.872 184.96 614.088 185.984C615.368 186.944 616.744 187.616 618.216 188ZM679.635 188H675.987L632.883 127.712V181.184C633.331 182.656 634.163 184.064 635.379 185.408C636.659 186.688 638.067 187.552 639.603 188H625.299C626.771 187.552 628.147 186.688 629.427 185.408C630.707 184.064 631.539 182.656 631.923 181.184V126.272C631.283 125.12 630.451 124.096 629.427 123.2C628.467 122.24 627.411 121.6 626.259 121.28H637.875L678.675 178.4V128.192C678.227 126.72 677.363 125.312 676.083 123.968C674.867 122.624 673.491 121.728 671.955 121.28H686.259C684.787 121.728 683.411 122.624 682.131 123.968C680.915 125.312 680.083 126.72 679.635 128.192V188ZM726.513 189.152C716.273 189.152 708.273 186.208 702.513 180.32C696.753 174.368 693.873 165.888 693.873 154.88C693.873 144.576 696.913 136.288 702.993 130.016C709.073 123.68 717.137 120.512 727.185 120.512C735.057 120.512 742.257 121.792 748.785 124.352V137.696C746.993 134.752 744.913 132.096 742.545 129.728C740.241 127.36 737.649 125.472 734.769 124.064C731.889 122.592 728.721 121.856 725.265 121.856C718.481 121.856 712.881 124.352 708.465 129.344C704.049 134.336 701.841 141.376 701.841 150.464C701.841 157.76 702.769 164.256 704.625 169.952C706.481 175.648 709.233 180.128 712.881 183.392C716.529 186.592 721.073 188.192 726.513 188.192C731.057 188.192 734.673 187.2 737.361 185.216C740.049 183.232 741.969 180.544 743.121 177.152C744.337 173.76 744.945 169.984 744.945 165.824V158.048C744.497 156.64 743.633 155.456 742.353 154.496C741.137 153.472 739.793 152.768 738.321 152.384H759.249C757.777 152.768 756.401 153.472 755.121 154.496C753.841 155.456 753.009 156.64 752.625 158.048V188.192H751.665L744.945 174.56C743.985 178.848 742.033 182.368 739.089 185.12C736.209 187.808 732.017 189.152 726.513 189.152ZM817.774 188H794.926C796.398 187.616 797.774 186.944 799.054 185.984C800.334 184.96 801.166 183.712 801.55 182.24V127.04C801.166 125.568 800.334 124.352 799.054 123.392C797.774 122.368 796.398 121.664 794.926 121.28H820.366C827.598 121.28 833.134 122.368 836.974 124.544C840.878 126.72 842.83 130.368 842.83 135.488C842.83 137.984 842.094 140.16 840.622 142.016C839.15 143.872 837.262 145.568 834.958 147.104C832.654 148.64 830.158 150.112 827.47 151.52C824.462 153.12 821.582 154.848 818.83 156.704C816.078 158.56 813.774 160.736 811.918 163.232C810.126 165.664 809.23 168.672 809.23 172.256V182.24C809.806 184.096 810.99 185.44 812.782 186.272C814.574 187.104 816.238 187.68 817.774 188ZM809.23 166.112C810.382 163.04 812.142 160.512 814.51 158.528C816.878 156.544 819.438 154.752 822.19 153.152C824.43 151.872 826.51 150.528 828.43 149.12C830.35 147.648 831.918 145.92 833.134 143.936C834.414 141.888 835.054 139.36 835.054 136.352C835.054 131.488 833.614 127.936 830.734 125.696C827.918 123.392 824.462 122.24 820.366 122.24H809.23V166.112ZM882.343 188.96C876.007 188.96 870.311 187.68 865.255 185.12C860.263 182.496 856.295 178.656 853.351 173.6C850.471 168.48 849.031 162.176 849.031 154.688C849.031 147.392 850.471 141.184 853.351 136.064C856.295 130.944 860.263 127.04 865.255 124.352C870.311 121.664 876.007 120.32 882.343 120.32C888.743 120.32 894.439 121.664 899.431 124.352C904.487 127.04 908.455 130.944 911.335 136.064C914.279 141.184 915.751 147.392 915.751 154.688C915.751 162.176 914.279 168.48 911.335 173.6C908.455 178.656 904.487 182.496 899.431 185.12C894.439 187.68 888.743 188.96 882.343 188.96ZM884.551 187.712C886.599 187.712 888.743 187.424 890.983 186.848C896.999 185.12 901.383 181.984 904.135 177.44C906.951 172.896 908.359 167.616 908.359 161.6C908.359 157.248 907.719 152.768 906.439 148.16C904.391 140.48 901.159 134.176 896.743 129.248C892.327 124.32 886.887 121.76 880.423 121.568C878.311 121.568 876.103 121.856 873.799 122.432C867.783 124.16 863.367 127.296 860.551 131.84C857.799 136.384 856.423 141.664 856.423 147.68C856.423 151.968 857.063 156.448 858.343 161.12C859.687 166.176 861.575 170.72 864.007 174.752C866.439 178.72 869.383 181.888 872.839 184.256C876.295 186.56 880.199 187.712 884.551 187.712ZM944.252 188H923.324C924.796 187.616 926.172 186.944 927.452 185.984C928.732 184.96 929.564 183.712 929.948 182.24V127.04C929.564 125.568 928.732 124.352 927.452 123.392C926.172 122.368 924.796 121.664 923.324 121.28H944.252C942.78 121.664 941.404 122.368 940.124 123.392C938.908 124.352 938.076 125.568 937.628 127.04V182.24C938.076 183.712 938.908 184.96 940.124 185.984C941.404 186.944 942.78 187.616 944.252 188ZM1005.67 188H1002.02L958.919 127.712V181.184C959.367 182.656 960.199 184.064 961.415 185.408C962.695 186.688 964.103 187.552 965.639 188H951.335C952.807 187.552 954.183 186.688 955.463 185.408C956.743 184.064 957.575 182.656 957.959 181.184V126.272C957.319 125.12 956.487 124.096 955.463 123.2C954.503 122.24 953.447 121.6 952.295 121.28H963.911L1004.71 178.4V128.192C1004.26 126.72 1003.4 125.312 1002.12 123.968C1000.9 122.624 999.527 121.728 997.991 121.28H1012.3C1010.82 121.728 1009.45 122.624 1008.17 123.968C1006.95 125.312 1006.12 126.72 1005.67 128.192V188ZM1057.71 188H1036.78C1038.25 187.616 1039.6 186.944 1040.81 185.984C1042.09 184.96 1042.96 183.712 1043.4 182.24V122.24H1039.95C1035.85 122.24 1032.14 123.264 1028.81 125.312C1025.48 127.296 1022.41 129.76 1019.6 132.704L1021.52 121.28H1072.97L1074.89 132.704C1072.08 129.76 1069 127.296 1065.68 125.312C1062.35 123.264 1058.64 122.24 1054.54 122.24H1051.08V182.24C1051.47 183.712 1052.3 184.96 1053.58 185.984C1054.86 186.944 1056.24 187.616 1057.71 188Z" fill="#1E1B1E"/>
</svg>
