<svg width="359" height="67" viewBox="0 0 359 67" fill="none" xmlns="http://www.w3.org/2000/svg">
<path d="M157.92 23.352C155.808 23.352 153.909 22.9253 152.224 22.072C150.56 21.2187 149.237 19.9493 148.256 18.264C147.296 16.5573 146.816 14.4453 146.816 11.928C146.816 9.496 147.296 7.43733 148.256 5.752C149.237 4.04533 150.56 2.744 152.224 1.848C153.909 0.952 155.808 0.504 157.92 0.504C160.053 0.504 161.952 0.952 163.616 1.848C165.301 2.744 166.624 4.04533 167.584 5.752C168.565 7.43733 169.056 9.496 169.056 11.928C169.056 14.4453 168.565 16.5573 167.584 18.264C166.624 19.9493 165.301 21.2187 163.616 22.072C161.952 22.9253 160.053 23.352 157.92 23.352ZM158.688 22.968C159.84 22.968 161.013 22.7013 162.208 22.168C164.149 21.1013 165.12 19.544 165.12 17.496C165.12 15.128 162.72 13.3253 157.92 12.088C155.957 11.5973 154.24 10.904 152.768 10.008C151.232 9.02667 150.464 7.81067 150.464 6.36C150.464 5.29333 150.741 4.32267 151.296 3.448C149.952 5.13333 149.28 7.18133 149.28 9.592C149.28 11.0213 149.493 12.5147 149.92 14.072C150.368 15.7787 150.997 17.304 151.808 18.648C152.64 19.9707 153.632 21.0267 154.784 21.816C155.936 22.584 157.237 22.968 158.688 22.968ZM164.608 20.376C165.93 18.84 166.592 16.8027 166.592 14.264C166.592 12.8133 166.378 11.32 165.952 9.784C165.269 7.224 164.192 5.12267 162.72 3.48C161.248 1.83733 159.434 0.973332 157.28 0.887999C156.576 0.887999 155.84 0.994665 155.072 1.208C154.496 1.336 153.973 1.528 153.504 1.784C151.69 2.85067 150.784 4.376 150.784 6.36C150.784 7.704 151.488 8.824 152.896 9.72C154.325 10.616 156.021 11.3093 157.984 11.8C159.946 12.2693 161.653 12.952 163.104 13.848C164.661 14.8293 165.44 16.0453 165.44 17.496C165.44 18.5413 165.162 19.5013 164.608 20.376ZM181.282 23.416C179.767 23.416 178.413 23.096 177.218 22.456C176.023 21.816 175.074 20.792 174.37 19.384C173.687 17.9547 173.346 16.0667 173.346 13.72V2.776C173.218 2.28533 172.941 1.88 172.514 1.56C172.087 1.21867 171.629 0.983999 171.138 0.855999H178.114C177.623 0.983999 177.165 1.21867 176.738 1.56C176.333 1.88 176.055 2.28533 175.906 2.776V13.72C175.906 16.856 176.482 19.16 177.634 20.632C178.786 22.104 180.269 22.84 182.082 22.84C183.255 22.84 184.333 22.5307 185.314 21.912C186.317 21.2933 187.117 20.312 187.714 18.968C188.333 17.624 188.642 15.8747 188.642 13.72V2.776C188.493 2.28533 188.205 1.88 187.778 1.56C187.373 1.21867 186.914 0.983999 186.402 0.855999H191.17C190.679 0.983999 190.221 1.21867 189.794 1.56C189.367 1.88 189.079 2.28533 188.93 2.776V13.72C188.93 15.96 188.61 17.7947 187.97 19.224C187.33 20.6533 186.434 21.7093 185.282 22.392C184.13 23.0747 182.797 23.416 181.282 23.416ZM212.492 23H205.356C205.847 22.872 206.273 22.648 206.636 22.328C206.999 21.9867 207.212 21.5707 207.276 21.08L206.668 17.592C206.455 16.0987 206.007 14.84 205.324 13.816C204.663 12.792 203.617 12.248 202.188 12.184H201.228C199.927 12.184 198.871 12.3547 198.06 12.696V21.08C198.209 21.5707 198.487 21.9867 198.892 22.328C199.319 22.648 199.777 22.872 200.268 23H193.292C193.783 22.872 194.241 22.648 194.668 22.328C195.095 21.9867 195.372 21.5707 195.5 21.08V2.68C195.372 2.18933 195.095 1.784 194.668 1.464C194.241 1.12267 193.783 0.887999 193.292 0.759998H201.548C204.108 0.759998 206.124 1.21867 207.596 2.136C209.089 3.032 209.836 4.48267 209.836 6.488C209.836 8.23733 209.356 9.528 208.396 10.36C207.457 11.1707 206.124 11.7147 204.396 11.992V12.056C207.425 12.568 209.164 14.4133 209.612 17.592L210.188 21.048C210.657 22.0293 211.425 22.68 212.492 23ZM198.06 12.376C198.913 12.056 199.927 11.896 201.1 11.896H201.548C203.255 11.896 204.577 11.4373 205.516 10.52C206.455 9.58133 206.924 8.23733 206.924 6.488C206.924 4.71733 206.444 3.37333 205.484 2.456C204.524 1.53867 203.212 1.08 201.548 1.08H198.06V12.376ZM10.7775 63.416C9.26283 63.416 7.90816 63.096 6.7135 62.456C5.51883 61.816 4.5695 60.792 3.8655 59.384C3.18283 57.9547 2.8415 56.0667 2.8415 53.72V42.776C2.7135 42.2853 2.43616 41.88 2.0095 41.56C1.58283 41.2187 1.12416 40.984 0.633496 40.856H7.6095C7.11883 40.984 6.66016 41.2187 6.2335 41.56C5.82816 41.88 5.55083 42.2853 5.4015 42.776V53.72C5.4015 56.856 5.9775 59.16 7.1295 60.632C8.2815 62.104 9.76416 62.84 11.5775 62.84C12.7508 62.84 13.8282 62.5307 14.8095 61.912C15.8122 61.2933 16.6122 60.312 17.2095 58.968C17.8282 57.624 18.1375 55.8747 18.1375 53.72V42.776C17.9882 42.2853 17.7002 41.88 17.2735 41.56C16.8682 41.2187 16.4095 40.984 15.8975 40.856H20.6655C20.1748 40.984 19.7162 41.2187 19.2895 41.56C18.8628 41.88 18.5748 42.2853 18.4255 42.776V53.72C18.4255 55.96 18.1055 57.7947 17.4655 59.224C16.8255 60.6533 15.9295 61.7093 14.7775 62.392C13.6255 63.0747 12.2922 63.416 10.7775 63.416ZM40.8995 63H39.6835L25.3155 42.904V60.728C25.4648 61.2187 25.7422 61.688 26.1475 62.136C26.5742 62.5627 27.0435 62.8507 27.5555 63H22.7875C23.2782 62.8507 23.7368 62.5627 24.1635 62.136C24.5902 61.688 24.8675 61.2187 24.9955 60.728V42.424C24.7822 42.04 24.5048 41.6987 24.1635 41.4C23.8435 41.08 23.4915 40.8667 23.1075 40.76H26.9795L40.5795 59.8V43.064C40.4302 42.5733 40.1422 42.104 39.7155 41.656C39.3102 41.208 38.8515 40.9093 38.3395 40.76H43.1075C42.6168 40.9093 42.1582 41.208 41.7315 41.656C41.3262 42.104 41.0488 42.5733 40.8995 43.064V63ZM52.6215 63H45.6455C46.1362 62.872 46.5948 62.648 47.0215 62.328C47.4482 61.9867 47.7255 61.5707 47.8535 61.08V42.68C47.7255 42.1893 47.4482 41.784 47.0215 41.464C46.5948 41.1227 46.1362 40.888 45.6455 40.76H52.6215C52.1308 40.888 51.6722 41.1227 51.2455 41.464C50.8402 41.784 50.5628 42.1893 50.4135 42.68V61.08C50.5628 61.5707 50.8402 61.9867 51.2455 62.328C51.6722 62.648 52.1308 62.872 52.6215 63ZM78.2785 66.296H71.6865C72.1772 66.0613 72.4225 65.6453 72.4225 65.048C72.4225 64.4933 72.1665 63.9387 71.6545 63.384L70.5665 62.584C69.2225 63.0747 67.7292 63.32 66.0865 63.32C63.9745 63.32 62.0758 62.8933 60.3905 62.04C58.7265 61.1653 57.4038 59.8853 56.4225 58.2C55.4625 56.4933 54.9825 54.392 54.9825 51.896C54.9825 49.464 55.4625 47.3947 56.4225 45.688C57.4038 43.9813 58.7265 42.68 60.3905 41.784C62.0758 40.888 63.9745 40.44 66.0865 40.44C68.2198 40.44 70.1185 40.888 71.7825 41.784C73.4678 42.68 74.7905 43.9813 75.7505 45.688C76.7318 47.3947 77.2225 49.464 77.2225 51.896C77.2225 54.6053 76.6465 56.8453 75.4945 58.616C74.3638 60.3867 72.8385 61.656 70.9185 62.424C71.3665 62.7867 71.8145 63.128 72.2625 63.448C72.9452 63.9173 73.8412 64.44 74.9505 65.016C76.0598 65.592 77.1692 66.0187 78.2785 66.296ZM66.8545 62.904C67.5372 62.904 68.2412 62.808 68.9665 62.616C69.3932 62.5093 69.7772 62.3813 70.1185 62.232L67.5265 60.12C67.1852 59.7787 66.7905 59.608 66.3425 59.608C65.2545 59.608 64.6892 60.152 64.6465 61.24C64.6465 62.008 65.0305 62.5413 65.7985 62.84C66.1612 62.8827 66.5132 62.904 66.8545 62.904ZM64.9025 62.648C64.5185 62.2427 64.3265 61.7733 64.3265 61.24C64.3265 60.7067 64.5078 60.248 64.8705 59.864C65.2545 59.48 65.7452 59.288 66.3425 59.288C66.8972 59.288 67.3558 59.48 67.7185 59.864C68.6358 60.632 69.5532 61.368 70.4705 62.072C71.9425 61.3253 73.0198 60.2693 73.7025 58.904C74.4065 57.5173 74.7585 55.9493 74.7585 54.2C74.7585 52.7493 74.5452 51.256 74.1185 49.72C73.4358 47.16 72.3585 45.0587 70.8865 43.416C69.4145 41.7733 67.6012 40.92 65.4465 40.856C64.7425 40.856 64.0065 40.952 63.2385 41.144C61.2332 41.72 59.7612 42.7653 58.8225 44.28C57.9052 45.7947 57.4465 47.5547 57.4465 49.56C57.4465 50.9893 57.6598 52.4827 58.0865 54.04C58.6625 56.1947 59.5265 58.04 60.6785 59.576C61.8305 61.112 63.2385 62.136 64.9025 62.648ZM88.3862 63.416C86.8716 63.416 85.5169 63.096 84.3222 62.456C83.1276 61.816 82.1782 60.792 81.4742 59.384C80.7916 57.9547 80.4502 56.0667 80.4502 53.72V42.776C80.3222 42.2853 80.0449 41.88 79.6182 41.56C79.1916 41.2187 78.7329 40.984 78.2422 40.856H85.2182C84.7276 40.984 84.2689 41.2187 83.8422 41.56C83.4369 41.88 83.1596 42.2853 83.0102 42.776V53.72C83.0102 56.856 83.5862 59.16 84.7382 60.632C85.8902 62.104 87.3729 62.84 89.1862 62.84C90.3596 62.84 91.4369 62.5307 92.4182 61.912C93.4209 61.2933 94.2209 60.312 94.8182 58.968C95.4369 57.624 95.7462 55.8747 95.7462 53.72V42.776C95.5969 42.2853 95.3089 41.88 94.8822 41.56C94.4769 41.2187 94.0182 40.984 93.5062 40.856H98.2742C97.7836 40.984 97.3249 41.2187 96.8982 41.56C96.4716 41.88 96.1836 42.2853 96.0342 42.776V53.72C96.0342 55.96 95.7142 57.7947 95.0742 59.224C94.4342 60.6533 93.5382 61.7093 92.3862 62.392C91.2342 63.0747 89.9009 63.416 88.3862 63.416ZM116.076 63H100.396C100.887 62.872 101.346 62.648 101.772 62.328C102.199 61.9867 102.476 61.5707 102.604 61.08V42.68C102.476 42.1893 102.199 41.784 101.772 41.464C101.346 41.1227 100.887 40.888 100.396 40.76H115.948L116.588 44.568C115.65 43.5867 114.519 42.7653 113.196 42.104C111.895 41.4213 110.551 41.08 109.164 41.08H105.164V51.736H110.284C110.839 51.608 111.468 51.4267 112.172 51.192C112.876 50.936 113.506 50.6587 114.06 50.36C114.615 50.0613 114.946 49.7733 115.052 49.496V54.264C114.946 53.9867 114.615 53.6987 114.06 53.4C113.506 53.1013 112.876 52.8347 112.172 52.6C111.468 52.3653 110.839 52.184 110.284 52.056H105.164V62.68H109.036C110.402 62.68 111.778 62.3067 113.164 61.56C114.551 60.792 115.735 59.9173 116.716 58.936L116.076 63ZM135.919 63.384C134.703 63.384 133.455 63.2987 132.175 63.128C130.917 62.9573 129.882 62.7653 129.071 62.552V57.656C129.861 59.1493 130.863 60.4293 132.079 61.496C133.295 62.5413 134.575 63.064 135.919 63.064C137.434 63.064 138.618 62.6587 139.471 61.848C140.325 61.016 140.751 59.9173 140.751 58.552C140.751 57.4853 140.495 56.6 139.983 55.896C139.493 55.1707 138.853 54.5413 138.063 54.008C137.274 53.4747 136.293 52.888 135.119 52.248L134.543 51.896C133.434 51.2773 132.485 50.6907 131.695 50.136C130.927 49.5813 130.33 48.9733 129.903 48.312C129.477 47.6293 129.263 46.7653 129.263 45.72C129.263 44.1413 129.839 42.8827 130.991 41.944C132.165 40.984 133.658 40.504 135.471 40.504C136.73 40.504 137.978 40.5893 139.215 40.76C140.474 40.9093 141.509 41.1013 142.319 41.336V46.232C141.53 44.7173 140.538 43.4373 139.343 42.392C138.149 41.3467 136.858 40.824 135.471 40.824C134.234 40.824 133.21 41.144 132.399 41.784C131.589 42.424 131.183 43.2773 131.183 44.344C131.183 45.1333 131.439 45.8373 131.951 46.456C132.634 47.3733 133.967 48.408 135.951 49.56L137.743 50.648C138.746 51.224 139.642 51.8 140.431 52.376C141.242 52.952 141.871 53.624 142.319 54.392C142.789 55.16 143.023 56.1413 143.023 57.336C143.023 59.0853 142.405 60.536 141.167 61.688C139.951 62.8187 138.202 63.384 135.919 63.384ZM160.744 63H145.064C145.554 62.872 146.013 62.648 146.44 62.328C146.866 61.9867 147.144 61.5707 147.272 61.08V42.68C147.144 42.1893 146.866 41.784 146.44 41.464C146.013 41.1227 145.554 40.888 145.064 40.76H160.616L161.256 44.568C160.317 43.5867 159.186 42.7653 157.864 42.104C156.562 41.4213 155.218 41.08 153.832 41.08H149.832V51.736H154.952C155.506 51.608 156.136 51.4267 156.84 51.192C157.544 50.936 158.173 50.6587 158.728 50.36C159.282 50.0613 159.613 49.7733 159.72 49.496V54.264C159.613 53.9867 159.282 53.6987 158.728 53.4C158.173 53.1013 157.544 52.8347 156.84 52.6C156.136 52.3653 155.506 52.184 154.952 52.056H149.832V62.68H153.704C155.069 62.68 156.445 62.3067 157.832 61.56C159.218 60.792 160.402 59.9173 161.384 58.936L160.744 63ZM178.418 63H163.474C163.964 62.872 164.423 62.648 164.85 62.328C165.276 61.9867 165.554 61.5707 165.682 61.08V42.68C165.554 42.1893 165.276 41.784 164.85 41.464C164.423 41.1227 163.964 40.888 163.474 40.76H170.45C169.959 40.888 169.5 41.1227 169.074 41.464C168.668 41.784 168.391 42.1893 168.242 42.68V62.68H170.994C172.359 62.68 173.81 62.2427 175.346 61.368C176.882 60.4933 178.151 59.5547 179.154 58.552L178.418 63ZM196.172 63H181.228C181.718 62.872 182.177 62.648 182.604 62.328C183.03 61.9867 183.308 61.5707 183.436 61.08V42.68C183.308 42.1893 183.03 41.784 182.604 41.464C182.177 41.1227 181.718 40.888 181.228 40.76H188.204C187.713 40.888 187.254 41.1227 186.828 41.464C186.422 41.784 186.145 42.1893 185.996 42.68V62.68H188.748C190.113 62.68 191.564 62.2427 193.1 61.368C194.636 60.4933 195.905 59.5547 196.908 58.552L196.172 63ZM206.405 63H199.429C199.92 62.872 200.379 62.648 200.805 62.328C201.232 61.9867 201.509 61.5707 201.637 61.08V42.68C201.509 42.1893 201.232 41.784 200.805 41.464C200.379 41.1227 199.92 40.888 199.429 40.76H206.405C205.915 40.888 205.456 41.1227 205.029 41.464C204.624 41.784 204.347 42.1893 204.197 42.68V61.08C204.347 61.5707 204.624 61.9867 205.029 62.328C205.456 62.648 205.915 62.872 206.405 63ZM226.878 63H225.662L211.294 42.904V60.728C211.444 61.2187 211.721 61.688 212.126 62.136C212.553 62.5627 213.022 62.8507 213.534 63H208.766C209.257 62.8507 209.716 62.5627 210.142 62.136C210.569 61.688 210.846 61.2187 210.974 60.728V42.424C210.761 42.04 210.484 41.6987 210.142 41.4C209.822 41.08 209.47 40.8667 209.086 40.76H212.958L226.558 59.8V43.064C226.409 42.5733 226.121 42.104 225.694 41.656C225.289 41.208 224.83 40.9093 224.318 40.76H229.086C228.596 40.9093 228.137 41.208 227.71 41.656C227.305 42.104 227.028 42.5733 226.878 43.064V63ZM242.504 63.384C239.091 63.384 236.424 62.4027 234.504 60.44C232.584 58.456 231.624 55.6293 231.624 51.96C231.624 48.5253 232.638 45.7627 234.664 43.672C236.691 41.56 239.379 40.504 242.728 40.504C245.352 40.504 247.752 40.9307 249.928 41.784V46.232C249.331 45.2507 248.638 44.3653 247.848 43.576C247.08 42.7867 246.216 42.1573 245.256 41.688C244.296 41.1973 243.24 40.952 242.088 40.952C239.827 40.952 237.96 41.784 236.488 43.448C235.016 45.112 234.28 47.4587 234.28 50.488C234.28 52.92 234.59 55.0853 235.208 56.984C235.827 58.8827 236.744 60.376 237.96 61.464C239.176 62.5307 240.691 63.064 242.504 63.064C244.019 63.064 245.224 62.7333 246.12 62.072C247.016 61.4107 247.656 60.5147 248.04 59.384C248.446 58.2533 248.648 56.9947 248.648 55.608V53.016C248.499 52.5467 248.211 52.152 247.784 51.832C247.379 51.4907 246.931 51.256 246.44 51.128H253.416C252.926 51.256 252.467 51.4907 252.04 51.832C251.614 52.152 251.336 52.5467 251.208 53.016V63.064H250.888L248.648 58.52C248.328 59.9493 247.678 61.1227 246.696 62.04C245.736 62.936 244.339 63.384 242.504 63.384ZM272.925 63H265.309C265.799 62.872 266.258 62.648 266.685 62.328C267.111 61.9867 267.389 61.5707 267.517 61.08V42.68C267.389 42.1893 267.111 41.784 266.685 41.464C266.258 41.1227 265.799 40.888 265.309 40.76H273.789C276.199 40.76 278.045 41.1227 279.325 41.848C280.626 42.5733 281.277 43.7893 281.277 45.496C281.277 46.328 281.031 47.0533 280.541 47.672C280.05 48.2907 279.421 48.856 278.653 49.368C277.885 49.88 277.053 50.3707 276.157 50.84C275.154 51.3733 274.194 51.9493 273.277 52.568C272.359 53.1867 271.591 53.912 270.973 54.744C270.375 55.5547 270.077 56.5573 270.077 57.752V61.08C270.269 61.6987 270.663 62.1467 271.261 62.424C271.858 62.7013 272.413 62.8933 272.925 63ZM270.077 55.704C270.461 54.68 271.047 53.8373 271.837 53.176C272.626 52.5147 273.479 51.9173 274.397 51.384C275.143 50.9573 275.837 50.5093 276.477 50.04C277.117 49.5493 277.639 48.9733 278.045 48.312C278.471 47.6293 278.685 46.7867 278.685 45.784C278.685 44.1627 278.205 42.9787 277.245 42.232C276.306 41.464 275.154 41.08 273.789 41.08H270.077V55.704ZM294.448 63.32C292.336 63.32 290.437 62.8933 288.752 62.04C287.088 61.1653 285.765 59.8853 284.784 58.2C283.824 56.4933 283.344 54.392 283.344 51.896C283.344 49.464 283.824 47.3947 284.784 45.688C285.765 43.9813 287.088 42.68 288.752 41.784C290.437 40.888 292.336 40.44 294.448 40.44C296.581 40.44 298.48 40.888 300.144 41.784C301.829 42.68 303.152 43.9813 304.112 45.688C305.093 47.3947 305.584 49.464 305.584 51.896C305.584 54.392 305.093 56.4933 304.112 58.2C303.152 59.8853 301.829 61.1653 300.144 62.04C298.48 62.8933 296.581 63.32 294.448 63.32ZM295.184 62.904C295.866 62.904 296.581 62.808 297.328 62.616C299.333 62.04 300.794 60.9947 301.712 59.48C302.65 57.9653 303.12 56.2053 303.12 54.2C303.12 52.7493 302.906 51.256 302.48 49.72C301.797 47.16 300.72 45.0587 299.248 43.416C297.776 41.7733 295.962 40.92 293.808 40.856C293.104 40.856 292.368 40.952 291.6 41.144C289.594 41.72 288.122 42.7653 287.184 44.28C286.266 45.7947 285.808 47.5547 285.808 49.56C285.808 50.9893 286.021 52.4827 286.448 54.04C286.896 55.7253 287.525 57.24 288.336 58.584C289.146 59.9067 290.128 60.9627 291.28 61.752C292.432 62.52 293.733 62.904 295.184 62.904ZM315.084 63H308.108C308.599 62.872 309.057 62.648 309.484 62.328C309.911 61.9867 310.188 61.5707 310.316 61.08V42.68C310.188 42.1893 309.911 41.784 309.484 41.464C309.057 41.1227 308.599 40.888 308.108 40.76H315.084C314.593 40.888 314.135 41.1227 313.708 41.464C313.303 41.784 313.025 42.1893 312.876 42.68V61.08C313.025 61.5707 313.303 61.9867 313.708 62.328C314.135 62.648 314.593 62.872 315.084 63ZM335.557 63H334.341L319.973 42.904V60.728C320.122 61.2187 320.4 61.688 320.805 62.136C321.232 62.5627 321.701 62.8507 322.213 63H317.445C317.936 62.8507 318.394 62.5627 318.821 62.136C319.248 61.688 319.525 61.2187 319.653 60.728V42.424C319.44 42.04 319.162 41.6987 318.821 41.4C318.501 41.08 318.149 40.8667 317.765 40.76H321.637L335.237 59.8V43.064C335.088 42.5733 334.8 42.104 334.373 41.656C333.968 41.208 333.509 40.9093 332.997 40.76H337.765C337.274 40.9093 336.816 41.208 336.389 41.656C335.984 42.104 335.706 42.5733 335.557 43.064V63ZM352.903 63H345.927C346.417 62.872 346.865 62.648 347.271 62.328C347.697 61.9867 347.985 61.5707 348.135 61.08V41.08H346.983C345.617 41.08 344.38 41.4213 343.271 42.104C342.161 42.7653 341.137 43.5867 340.199 44.568L340.839 40.76H357.991L358.631 44.568C357.692 43.5867 356.668 42.7653 355.559 42.104C354.449 41.4213 353.212 41.08 351.847 41.08H350.695V61.08C350.823 61.5707 351.1 61.9867 351.527 62.328C351.953 62.648 352.412 62.872 352.903 63Z" fill="black"/>
</svg>
